<svg width="712" height="663" viewBox="0 0 712 663" fill="none" xmlns="http://www.w3.org/2000/svg">
<path d="M397.575 335.643L452.393 303.983C453.056 303.615 453.572 303.1 454.014 302.584C454.308 302.216 454.529 301.848 454.677 301.406C454.824 300.964 454.971 300.523 454.971 300.081C455.045 299.639 455.045 299.197 454.971 298.756C454.898 298.314 454.824 297.872 454.677 297.43C454.529 296.989 454.308 296.62 454.014 296.252C453.719 295.884 453.424 295.516 453.056 295.221C452.835 295.074 452.687 294.927 452.466 294.78L363.756 243.608C360.219 241.547 360.219 236.466 363.756 234.405L481.349 166.52L418.5 130.442L0 371.868L167.4 468.468L397.575 335.643Z" fill="#E9E133"/>
<path d="M574.995 378.2L525.777 406.621C524.156 407.578 522.093 407.578 520.472 406.621L397.575 335.717L167.4 468.468L418.5 613.368L711.45 444.318L596.804 378.2C590.026 374.298 581.774 374.298 574.995 378.2Z" fill="#EEE866"/>
<path d="M481.275 166.667L363.682 234.552C360.146 236.614 360.146 241.694 363.682 243.756L452.392 294.853C452.613 295.001 452.835 295.148 452.982 295.295C453.35 295.59 453.719 295.958 453.94 296.326C454.234 296.694 454.455 297.062 454.603 297.504C454.75 297.946 454.898 298.388 454.898 298.829C454.971 299.271 454.971 299.713 454.898 300.155C454.824 300.596 454.75 301.038 454.603 301.48C454.455 301.922 454.234 302.29 453.94 302.658C453.498 303.247 452.982 303.689 452.319 304.057L397.501 335.717L520.399 406.621C522.02 407.578 524.083 407.578 525.704 406.621L574.922 378.2C581.626 374.298 589.952 374.298 596.731 378.2L711.376 444.318L836.926 371.868L481.275 166.667Z" fill="#E3D900"/>
<path d="M273.057 333.287C269.962 333.287 266.794 332.477 264.068 330.931L167.253 275.637L167.621 274.974L264.362 330.269C269.741 333.361 276.446 333.287 281.751 330.195L397.354 262.899L397.722 263.562L282.193 330.858C279.393 332.477 276.225 333.287 273.057 333.287Z" fill="#E9E133"/>
<path d="M292.729 396.387L238.722 365.242C233.417 362.149 226.786 362.149 221.481 365.242L197.24 379.231C191.714 382.397 184.788 382.397 179.262 379.231L145.665 359.867L187.515 335.717L166.59 323.642L167.179 323.348L409.953 183.233C415.184 180.215 421.668 180.215 426.899 183.233L439.499 190.522L439.13 191.185L426.531 183.896C421.521 181.024 415.332 181.024 410.322 183.896L168.137 323.568L189.062 335.643L147.212 359.793L179.705 378.495C185.009 381.587 191.641 381.587 196.946 378.495L221.186 364.506C226.712 361.34 233.638 361.34 239.164 364.506L293.171 395.65L292.729 396.387Z" fill="#E9E133"/>
<path d="M335.021 565.363L334.653 564.7L368.545 545.189C370.093 544.305 371.05 542.685 371.05 540.918C371.05 539.151 370.093 537.531 368.545 536.648L279.982 485.55C278.14 484.519 277.109 482.678 277.109 480.543C277.109 478.482 278.214 476.567 279.982 475.536L418.353 395.724L418.721 396.386L280.277 476.199C278.73 477.083 277.772 478.702 277.772 480.543C277.772 482.384 278.73 484.004 280.277 484.887L368.84 535.985C370.608 537.016 371.713 538.857 371.713 540.918C371.713 542.98 370.682 544.82 368.84 545.851L335.021 565.363Z" fill="#EEE866"/>
<path d="M564.975 478.187C561.88 478.187 558.712 477.377 555.912 475.757L405.238 388.876C403.469 387.845 402.438 386.005 402.438 384.017C402.438 381.955 403.469 380.188 405.238 379.157L439.204 359.572L439.572 360.235L405.606 379.82C404.059 380.704 403.175 382.25 403.175 384.017C403.175 385.784 404.059 387.33 405.606 388.214L556.281 475.095C561.659 478.187 568.29 478.187 573.595 475.095L669.379 419.874L669.747 420.536L573.964 475.757C571.238 477.377 568.069 478.187 564.975 478.187Z" fill="#EEE866"/>
<path d="M501.979 565.363L342.61 473.401C340.842 472.37 339.737 470.53 339.737 468.468C339.737 466.407 340.768 464.566 342.61 463.535L375.913 444.318L292.803 396.386L293.171 395.724L377.461 444.318L342.979 464.198C341.431 465.081 340.547 466.701 340.547 468.468C340.547 470.235 341.505 471.855 342.979 472.739L502.421 564.7L501.979 565.363Z" fill="#EEE866"/>
<path d="M669.821 420.536L669.453 419.874L745.564 376.433C747.111 375.55 748.069 373.93 748.069 372.163C748.069 370.396 747.111 368.776 745.564 367.892L699.809 341.533L648.749 312.082L606.899 336.232L606.678 336.159L502.053 275.784L473.023 258.923C471.254 257.892 470.149 256.051 470.149 253.99C470.149 251.928 471.181 250.087 473.023 249.057L498.884 234.11C500.432 233.227 501.389 231.607 501.389 229.84C501.389 228.073 500.432 226.453 498.884 225.569L439.204 191.111L439.572 190.449L499.179 224.833C500.947 225.864 502.053 227.705 502.053 229.766C502.053 231.828 501.021 233.668 499.179 234.699L473.318 249.646C471.77 250.529 470.812 252.149 470.812 253.916C470.812 255.683 471.77 257.303 473.318 258.187L606.751 335.128L648.601 310.978L648.822 311.051L700.103 340.65L745.858 367.009C747.627 368.04 748.732 369.88 748.732 371.942C748.732 374.003 747.627 375.844 745.858 376.875L669.821 420.536Z" fill="#E3D900"/>
<path d="M439.646 360.161L439.278 359.499L493.211 328.428C498.811 325.188 505.737 325.188 511.336 328.428L556.797 354.492C562.175 357.584 568.807 357.584 574.185 354.492L690.894 287.196L691.262 287.859L574.554 355.155C568.954 358.394 562.028 358.394 556.428 355.155L510.968 329.09C505.589 325.998 498.958 325.998 493.58 329.09L439.646 360.161Z" fill="#E3D900"/>
<path d="M522.975 190.472L397.418 262.965L397.787 263.603L523.344 191.109L522.975 190.472Z" fill="#E3D900"/>
<path opacity="0.6" d="M397.575 480.543L481.275 528.843L544.05 492.618L585.9 516.768L648.675 480.543L521.062 409.418L397.575 480.543Z" fill="#EEE866"/>
<path opacity="0.6" d="M125.55 444.318L272.025 528.843L397.575 456.393L249.332 372.384L125.55 444.318Z" fill="#EEE866"/>
<g opacity="0.46">
<path opacity="0.46" d="M548.986 594.519L473.612 551.079L475.97 547.029L551.344 590.47L548.986 594.519Z" fill="url(#paint0_linear_211_6704)"/>
<g opacity="0.46">
<g opacity="0.46">
<path opacity="0.46" d="M661.459 655.65L660.723 656.926L664.936 659.354L665.672 658.078L661.459 655.65Z" fill="#1E1851"/>
</g>
<g opacity="0.46">
<path opacity="0.46" d="M656.485 654.526L652.285 652.097L653.022 650.845L657.222 653.275L656.485 654.526ZM648.012 649.593L631.139 639.874L631.876 638.623L648.749 648.341L648.012 649.593Z" fill="#1E1851"/>
</g>
<g opacity="0.46">
<path opacity="0.46" d="M622.666 635.015L614.193 630.155L614.93 628.904L623.403 633.763L622.666 635.015ZM609.993 627.726L605.794 625.296L606.53 624.044L610.73 626.474L609.993 627.726ZM601.52 622.792L584.647 613.074L585.384 611.822L602.257 621.541L601.52 622.792ZM576.174 608.214L567.701 603.355L568.438 602.103L576.911 606.962L576.174 608.214ZM563.501 600.925L559.302 598.495L560.038 597.244L564.238 599.673L563.501 600.925ZM555.028 596.066L538.156 586.347L538.892 585.095L555.765 594.814L555.028 596.066ZM529.683 581.413L521.209 576.554L521.946 575.302L530.419 580.162L529.683 581.413ZM517.01 574.124L512.81 571.695L513.547 570.443L517.746 572.873L517.01 574.124ZM508.536 569.265L491.664 559.546L492.401 558.294L509.273 568.013L508.536 569.265ZM483.191 554.613L474.718 549.753L475.454 548.502L483.928 553.361L483.191 554.613ZM470.518 547.324L466.318 544.894L467.055 543.642L471.255 546.072L470.518 547.324ZM462.045 542.464L445.172 532.745L445.909 531.494L462.781 541.213L462.045 542.464ZM436.699 527.812L428.226 522.953L428.963 521.701L437.436 526.561L436.699 527.812ZM424.026 520.523L419.826 518.093L420.563 516.842L424.763 519.271L424.026 520.523ZM415.553 515.664L398.68 505.945L399.417 504.693L416.29 514.412L415.553 515.664ZM390.207 501.012L381.734 496.152L382.471 494.901L390.944 499.76L390.207 501.012ZM377.534 493.723L373.335 491.293L374.071 490.041L378.271 492.471L377.534 493.723ZM369.061 488.863L352.188 479.144L352.925 477.892L369.798 487.611L369.061 488.863ZM343.715 474.285L335.242 469.425L335.979 468.174L344.452 473.033L343.715 474.285ZM331.042 466.922L326.843 464.492L327.579 463.24L331.779 465.67L331.042 466.922ZM322.569 462.062L305.697 452.344L306.433 451.092L323.306 460.811L322.569 462.062ZM297.223 447.484L288.75 442.625L289.487 441.373L297.96 446.232L297.223 447.484ZM284.551 440.121L280.351 437.692L281.088 436.44L285.287 438.87L284.551 440.121ZM276.077 435.262L259.205 425.543L259.942 424.291L276.814 434.01L276.077 435.262Z" fill="#1E1851"/>
</g>
<g opacity="0.46">
<path opacity="0.46" d="M247.217 416.954L246.481 418.23L250.693 420.658L251.43 419.382L247.217 416.954Z" fill="#1E1851"/>
</g>
</g>
<path opacity="0.46" d="M280.425 434.231L370.387 486.065L367.956 490.115L278.067 438.28L280.425 434.231Z" fill="url(#paint1_linear_211_6704)"/>
<path opacity="0.46" d="M562.617 596.065L599.973 617.565L599.31 618.743L561.88 597.243L562.617 596.065Z" fill="#DFD71E"/>
<path opacity="0.46" d="M409.364 507.712L505.884 563.375L505.221 564.553L408.701 508.89L409.364 507.712Z" fill="#13BCCA"/>
<path opacity="0.46" d="M331.853 465.744L428.373 521.407L427.71 522.585L331.19 466.922L331.853 465.744Z" fill="#4FB8C6"/>
<path opacity="0.46" d="M471.255 548.354L477.149 551.741L475.896 553.803L470.076 550.416L471.255 548.354Z" fill="#DFD71E"/>
<path opacity="0.46" d="M387.923 497.625L393.817 501.012L392.639 503.073L386.744 499.686L387.923 497.625Z" fill="#DFD71E"/>
<path opacity="0.46" d="M595.257 615.651L618.761 629.198L616.403 633.248L592.9 619.7L595.257 615.651Z" fill="#13BCCA"/>
<path opacity="0.46" d="M273.351 432.906L285.14 439.606L282.708 443.729L270.993 436.955L273.351 432.906Z" fill="#13BCCA"/>
</g>
<g opacity="0.46">
<path opacity="0.46" d="M464.844 539.151L540.219 495.71L537.861 491.587L462.413 535.101L464.844 539.151Z" fill="url(#paint2_linear_211_6704)"/>
<g opacity="0.46">
<g opacity="0.46">
<path opacity="0.46" d="M352.272 600.276L348.061 602.705L348.797 603.98L353.009 601.551L352.272 600.276Z" fill="#1E1851"/>
</g>
<g opacity="0.46">
<path opacity="0.46" d="M357.346 599.084L356.609 597.833L360.809 595.403L361.546 596.654L357.346 599.084ZM365.745 594.225L365.009 592.973L381.881 583.254L382.618 584.506L365.745 594.225Z" fill="#1E1851"/>
</g>
<g opacity="0.46">
<path opacity="0.46" d="M391.165 579.646L390.428 578.395L398.901 573.535L399.638 574.787L391.165 579.646ZM403.838 572.284L403.101 571.032L407.301 568.602L408.037 569.854L403.838 572.284ZM412.237 567.424L411.5 566.172L428.373 556.454L429.11 557.705L412.237 567.424ZM437.657 552.846L436.92 551.594L445.393 546.735L446.13 547.986L437.657 552.846ZM450.329 545.483L449.593 544.231L453.792 541.801L454.529 543.053L450.329 545.483ZM458.729 540.623L457.992 539.372L474.865 529.653L475.602 530.905L458.729 540.623ZM484.148 526.045L483.412 524.793L491.885 519.934L492.622 521.186L484.148 526.045ZM496.821 518.756L496.084 517.504L500.284 515.075L501.021 516.326L496.821 518.756ZM505.221 513.823L504.484 512.571L521.357 502.852L522.093 504.104L505.221 513.823ZM530.64 499.245L529.903 497.993L538.377 493.133L539.113 494.385L530.64 499.245ZM543.313 491.955L542.576 490.704L546.776 488.274L547.513 489.526L543.313 491.955ZM551.786 487.096L551.049 485.844L567.922 476.125L568.659 477.377L551.786 487.096ZM577.132 472.444L576.395 471.192L584.868 466.333L585.605 467.584L577.132 472.444ZM589.805 465.155L589.068 463.903L593.268 461.473L594.005 462.725L589.805 465.155ZM598.278 460.295L597.541 459.044L614.414 449.325L615.151 450.576L598.278 460.295ZM623.624 445.643L622.887 444.392L631.36 439.532L632.097 440.784L623.624 445.643ZM636.297 438.354L635.56 437.102L639.76 434.673L640.496 435.924L636.297 438.354ZM644.77 433.495L644.033 432.243L660.906 422.524L661.642 423.776L644.77 433.495ZM670.116 418.843L669.379 417.591L677.852 412.732L678.589 413.983L670.116 418.843ZM682.789 411.554L682.052 410.302L686.251 407.872L686.988 409.124L682.789 411.554ZM691.262 406.694L690.525 405.442L707.397 395.723L708.134 396.975L691.262 406.694ZM716.607 392.042L715.871 390.79L724.344 385.931L725.081 387.183L716.607 392.042ZM729.28 384.753L728.544 383.501L732.743 381.071L733.48 382.323L729.28 384.753ZM737.753 379.893L737.017 378.642L753.889 368.923L754.626 370.175L737.753 379.893Z" fill="#1E1851"/>
</g>
</g>
<path opacity="0.46" d="M733.333 378.863L643.444 430.623L645.801 434.746L735.764 382.912L733.333 378.863Z" fill="url(#paint3_linear_211_6704)"/>
<path opacity="0.46" d="M451.214 540.624L413.784 562.197L414.521 563.375L451.877 541.802L451.214 540.624Z" fill="#DFD71E"/>
<path opacity="0.46" d="M604.467 452.344L507.947 507.933L508.61 509.111L605.13 453.522L604.467 452.344Z" fill="#13BCCA"/>
<path opacity="0.46" d="M681.978 410.375L585.458 466.038L586.121 467.216L682.641 411.554L681.978 410.375Z" fill="#4FB8C6"/>
<path opacity="0.46" d="M542.576 492.986L536.682 496.373L537.861 498.361L543.755 494.974L542.576 492.986Z" fill="#DFD71E"/>
<path opacity="0.46" d="M625.908 442.256L620.014 445.643L621.193 447.631L627.087 444.244L625.908 442.256Z" fill="#DFD71E"/>
<path opacity="0.46" d="M418.5 560.282L395.07 573.83L397.428 577.879L420.931 564.332L418.5 560.282Z" fill="#13BCCA"/>
</g>
<g opacity="0.46">
<path opacity="0.46" d="M173.368 324.672L248.742 281.232L246.384 277.182L170.937 320.623L173.368 324.672Z" fill="url(#paint4_linear_211_6704)"/>
<g opacity="0.46">
<g opacity="0.46">
<path opacity="0.46" d="M60.897 385.824L56.6853 388.253L57.4218 389.528L61.6335 387.1L60.897 385.824Z" fill="#1E1851"/>
</g>
<g opacity="0.46">
<path opacity="0.46" d="M65.8694 384.679L65.1326 383.428L69.3323 380.998L70.0691 382.25L65.8694 384.679ZM74.2688 379.746L73.532 378.495L90.4047 368.776L91.1415 370.027L74.2688 379.746Z" fill="#1E1851"/>
</g>
<g opacity="0.46">
<path opacity="0.46" d="M99.6885 365.168L98.9517 363.916L107.425 359.057L108.162 360.309L99.6885 365.168ZM112.361 357.879L111.625 356.627L115.824 354.197L116.561 355.449L112.361 357.879ZM120.761 353.019L120.024 351.768L136.897 342.049L137.633 343.301L120.761 353.019ZM146.18 338.367L145.443 337.116L153.917 332.256L154.653 333.508L146.18 338.367ZM158.853 331.078L158.116 329.827L162.316 327.397L163.053 328.649L158.853 331.078ZM167.326 326.219L166.59 324.967L183.462 315.248L184.199 316.5L167.326 326.219ZM192.672 311.567L191.935 310.315L200.408 305.456L201.145 306.707L192.672 311.567ZM205.345 304.278L204.608 303.026L208.808 300.596L209.545 301.848L205.345 304.278ZM213.818 299.418L213.081 298.167L229.954 288.448L230.691 289.699L213.818 299.418ZM239.164 284.766L238.427 283.515L246.9 278.655L247.637 279.907L239.164 284.766ZM251.837 277.477L251.1 276.225L255.3 273.796L256.036 275.047L251.837 277.477ZM260.31 272.618L259.573 271.366L276.446 261.647L277.183 262.899L260.31 272.618ZM285.656 257.966L284.919 256.714L293.392 251.854L294.129 253.106L285.656 257.966ZM298.329 250.676L297.592 249.425L301.792 246.995L302.528 248.247L298.329 250.676ZM306.802 245.817L306.065 244.565L322.938 234.846L323.674 236.098L306.802 245.817ZM332.148 231.165L331.411 229.913L339.884 225.054L340.621 226.306L332.148 231.165ZM344.82 223.876L344.084 222.624L348.283 220.194L349.02 221.446L344.82 223.876ZM353.294 219.016L352.557 217.765L369.429 208.046L370.166 209.297L353.294 219.016ZM378.639 204.438L377.903 203.186L386.376 198.327L387.112 199.579L378.639 204.438ZM391.312 197.075L390.575 195.824L394.775 193.394L395.512 194.645L391.312 197.075ZM399.785 192.216L399.049 190.964L415.921 181.245L416.658 182.497L399.785 192.216ZM425.131 177.637L424.394 176.386L432.867 171.526L433.604 172.778L425.131 177.637ZM437.804 170.275L437.067 169.023L441.267 166.593L442.004 167.845L437.804 170.275ZM446.277 165.415L445.54 164.163L462.413 154.445L463.15 155.696L446.277 165.415Z" fill="#1E1851"/>
</g>
<g opacity="0.46">
<path opacity="0.46" d="M475.06 147.176L470.849 149.605L471.585 150.881L475.797 148.452L475.06 147.176Z" fill="#1E1851"/>
</g>
</g>
<path opacity="0.46" d="M441.93 164.384L351.967 216.218L354.325 220.268L444.288 168.434L441.93 164.384Z" fill="url(#paint5_linear_211_6704)"/>
<path opacity="0.46" d="M159.737 326.219L122.382 347.718L123.045 348.896L160.4 327.397L159.737 326.219Z" fill="#DFD71E"/>
<path opacity="0.46" d="M312.991 237.865L216.47 293.528L217.134 294.706L313.654 239.043L312.991 237.865Z" fill="#13BCCA"/>
<path opacity="0.46" d="M390.502 195.971L293.981 251.56L294.645 252.738L391.165 197.149L390.502 195.971Z" fill="#4FB8C6"/>
<path opacity="0.46" d="M251.1 278.508L245.206 281.895L246.384 283.956L252.279 280.569L251.1 278.508Z" fill="#DFD71E"/>
<path opacity="0.46" d="M334.431 227.778L328.537 231.165L329.716 233.227L335.61 229.84L334.431 227.778Z" fill="#DFD71E"/>
<path opacity="0.46" d="M127.024 345.804L103.594 359.351L105.951 363.401L129.455 349.853L127.024 345.804Z" fill="#13BCCA"/>
<path opacity="0.46" d="M448.93 163.059L437.215 169.833L439.572 173.882L451.361 167.108L448.93 163.059Z" fill="#13BCCA"/>
</g>
<g opacity="0.46">
<path opacity="0.46" d="M275.635 597.833L351.009 554.392L348.652 550.343L273.277 593.783L275.635 597.833Z" fill="url(#paint6_linear_211_6704)"/>
<g opacity="0.46">
<g opacity="0.46">
<path opacity="0.46" d="M163.157 658.988L158.945 661.417L159.681 662.692L163.893 660.263L163.157 658.988Z" fill="#1E1851"/>
</g>
<g opacity="0.46">
<path opacity="0.46" d="M168.137 657.84L167.4 656.588L171.6 654.158L172.336 655.41L168.137 657.84ZM176.61 652.906L175.873 651.655L192.746 641.936L193.482 643.187L176.61 652.906Z" fill="#1E1851"/>
</g>
<g opacity="0.46">
<path opacity="0.46" d="M201.956 638.328L201.219 637.076L209.692 632.217L210.429 633.469L201.956 638.328ZM214.628 631.039L213.892 629.787L218.091 627.357L218.828 628.609L214.628 631.039ZM223.102 626.106L222.365 624.854L239.237 615.135L239.974 616.387L223.102 626.106ZM248.447 611.527L247.711 610.276L256.184 605.416L256.921 606.668L248.447 611.527ZM261.12 604.238L260.383 602.987L264.583 600.557L265.32 601.808L261.12 604.238ZM269.593 599.379L268.857 598.127L285.729 588.408L286.466 589.66L269.593 599.379ZM294.939 584.727L294.202 583.475L302.676 578.616L303.412 579.867L294.939 584.727ZM307.612 577.438L306.875 576.186L311.075 573.756L311.812 575.008L307.612 577.438ZM316.085 572.578L315.348 571.326L332.221 561.608L332.958 562.859L316.085 572.578ZM341.431 557.926L340.694 556.674L349.167 551.815L349.904 553.067L341.431 557.926ZM354.104 550.637L353.367 549.385L357.567 546.956L358.304 548.207L354.104 550.637ZM362.577 545.778L361.84 544.526L378.713 534.807L379.45 536.059L362.577 545.778ZM387.923 531.126L387.186 529.874L395.659 525.014L396.396 526.266L387.923 531.126ZM400.596 523.836L399.859 522.585L404.059 520.155L404.795 521.407L400.596 523.836ZM409.069 518.977L408.332 517.725L425.205 508.006L425.941 509.258L409.069 518.977ZM434.415 504.325L433.678 503.073L442.151 498.214L442.888 499.465L434.415 504.325ZM447.087 497.036L446.351 495.784L450.55 493.354L451.287 494.606L447.087 497.036ZM455.561 492.176L454.824 490.925L471.696 481.206L472.433 482.457L455.561 492.176ZM480.906 477.598L480.17 476.346L488.643 471.487L489.38 472.738L480.906 477.598ZM493.579 470.235L492.842 468.983L497.042 466.554L497.779 467.805L493.579 470.235ZM502.052 465.376L501.316 464.124L518.188 454.405L518.925 455.657L502.052 465.376ZM527.398 450.797L526.661 449.546L535.135 444.686L535.871 445.938L527.398 450.797ZM540.071 443.435L539.334 442.183L543.534 439.753L544.271 441.005L540.071 443.435ZM548.544 438.575L547.807 437.323L564.68 427.604L565.417 428.856L548.544 438.575Z" fill="#1E1851"/>
</g>
<g opacity="0.46">
<path opacity="0.46" d="M577.384 420.303L573.172 422.732L573.908 424.008L578.12 421.579L577.384 420.303Z" fill="#1E1851"/>
</g>
</g>
<path opacity="0.46" d="M544.197 437.544L454.235 489.379L456.666 493.428L546.555 441.594L544.197 437.544Z" fill="url(#paint7_linear_211_6704)"/>
<path opacity="0.46" d="M262.004 599.379L224.649 620.878L225.312 622.056L262.741 600.557L262.004 599.379Z" fill="#DFD71E"/>
<path opacity="0.46" d="M415.258 511.025L318.738 566.688L319.401 567.866L415.921 512.203L415.258 511.025Z" fill="#13BCCA"/>
<path opacity="0.46" d="M492.769 469.057L396.249 524.72L396.912 525.898L493.432 470.235L492.769 469.057Z" fill="#4FB8C6"/>
<path opacity="0.46" d="M353.367 551.668L347.473 555.055L348.725 557.116L354.546 553.73L353.367 551.668Z" fill="#DFD71E"/>
<path opacity="0.46" d="M436.699 500.938L430.804 504.325L431.983 506.386L437.878 503L436.699 500.938Z" fill="#DFD71E"/>
<path opacity="0.46" d="M229.364 618.964L205.861 632.511L208.218 636.561L231.722 623.013L229.364 618.964Z" fill="#13BCCA"/>
<path opacity="0.46" d="M551.197 436.219L539.482 442.919L541.84 447.042L553.628 440.269L551.197 436.219Z" fill="#13BCCA"/>
</g>
<g opacity="0.46">
<g opacity="0.46">
<g opacity="0.46">
<path opacity="0.46" d="M871.04 442.404L862.567 437.544L863.304 436.293L871.777 441.152L871.04 442.404ZM858.293 435.115L854.094 432.685L854.83 431.433L859.03 433.863L858.293 435.115ZM849.894 430.255L833.021 420.536L833.758 419.285L850.631 429.003L849.894 430.255ZM824.474 415.677L816.001 410.817L816.738 409.566L825.211 414.425L824.474 415.677ZM811.802 408.314L807.602 405.884L808.339 404.633L812.538 407.062L811.802 408.314ZM803.402 403.455L786.53 393.736L787.266 392.484L804.139 402.203L803.402 403.455ZM777.983 388.876L769.51 384.017L770.246 382.765L778.719 387.624L777.983 388.876ZM765.31 381.513L761.11 379.084L761.847 377.832L766.047 380.262L765.31 381.513ZM756.91 376.654L740.038 366.935L740.774 365.683L757.647 375.402L756.91 376.654ZM731.491 362.076L723.018 357.216L723.754 355.964L732.228 360.824L731.491 362.076ZM718.818 354.786L714.618 352.357L715.355 351.105L719.555 353.535L718.818 354.786ZM710.418 349.853L693.546 340.134L694.283 338.883L711.155 348.602L710.418 349.853ZM684.999 335.275L676.526 330.415L677.263 329.164L685.736 334.023L684.999 335.275ZM672.326 327.986L668.126 325.556L668.863 324.304L673.063 326.734L672.326 327.986ZM663.927 323.053L646.98 313.334L647.717 312.082L664.59 321.801L663.927 323.053ZM638.507 308.474L630.034 303.615L630.771 302.363L639.244 307.223L638.507 308.474ZM625.834 301.185L621.635 298.755L622.371 297.504L626.571 299.933L625.834 301.185ZM617.435 296.326L600.489 286.533L601.225 285.281L618.098 295L617.435 296.326ZM592.015 281.674L583.542 276.814L584.279 275.563L592.752 280.422L592.015 281.674ZM579.342 274.385L575.143 271.955L575.88 270.703L580.079 273.133L579.342 274.385ZM570.869 269.525L553.997 259.806L554.734 258.555L571.606 268.273L570.869 269.525ZM545.524 254.873L537.124 250.014L537.861 248.762L546.334 253.621L545.524 254.873ZM532.851 247.584L528.651 245.154L529.388 243.903L533.587 246.332L532.851 247.584ZM524.378 242.724L507.505 233.006L508.242 231.754L525.114 241.473L524.378 242.724Z" fill="#1E1851"/>
</g>
<g opacity="0.46">
<path opacity="0.46" d="M495.589 224.383L494.853 225.659L499.066 228.086L499.802 226.81L495.589 224.383Z" fill="#1E1851"/>
</g>
</g>
<path opacity="0.46" d="M528.798 241.62L618.688 293.454L616.33 297.504L526.367 245.743L528.798 241.62Z" fill="url(#paint8_linear_211_6704)"/>
<path opacity="0.46" d="M657.664 315.175L754.184 370.764L753.521 371.942L657.001 316.353L657.664 315.175Z" fill="#13BCCA"/>
<path opacity="0.46" d="M580.153 273.207L676.673 328.796L676.01 330.047L579.49 274.385L580.153 273.207Z" fill="#4FB8C6"/>
<path opacity="0.46" d="M636.297 305.087L642.117 308.474L640.939 310.462L635.044 307.075L636.297 305.087Z" fill="#DFD71E"/>
<path opacity="0.46" d="M521.725 240.295L533.44 247.068L531.082 251.118L519.367 244.344L521.725 240.295Z" fill="#13BCCA"/>
</g>
<g opacity="0.46">
<path opacity="0.46" d="M445.761 432.538L521.209 389.097L518.778 385.048L443.404 428.488L445.761 432.538Z" fill="url(#paint9_linear_211_6704)"/>
<g opacity="0.46">
<g opacity="0.46">
<path opacity="0.46" d="M333.28 493.714L329.068 496.143L329.804 497.418L334.016 494.989L333.28 493.714Z" fill="#1E1851"/>
</g>
<g opacity="0.46">
<path opacity="0.46" d="M338.263 492.544L337.526 491.293L341.726 488.863L342.463 490.115L338.263 492.544ZM346.736 487.685L345.999 486.433L362.872 476.714L363.609 477.966L346.736 487.685Z" fill="#1E1851"/>
</g>
<g opacity="0.46">
<path opacity="0.46" d="M372.082 473.033L371.345 471.781L379.818 466.922L380.555 468.174L372.082 473.033ZM384.755 465.744L384.018 464.492L388.218 462.062L388.954 463.314L384.755 465.744ZM393.228 460.884L392.491 459.633L409.364 449.914L410.1 451.166L393.228 460.884ZM418.574 446.232L417.837 444.981L426.31 440.121L427.047 441.373L418.574 446.232ZM431.246 438.943L430.51 437.692L434.709 435.262L435.446 436.514L431.246 438.943ZM439.72 434.084L438.983 432.832L455.855 423.113L456.592 424.365L439.72 434.084ZM465.065 419.432L464.329 418.18L472.802 413.321L473.539 414.572L465.065 419.432ZM477.738 412.143L477.001 410.891L481.201 408.461L481.938 409.713L477.738 412.143ZM486.211 407.283L485.475 406.032L502.347 396.313L503.084 397.564L486.211 407.283ZM511.557 392.631L510.82 391.38L519.294 386.52L520.03 387.772L511.557 392.631ZM524.23 385.342L523.493 384.09L527.693 381.661L528.43 382.912L524.23 385.342ZM532.703 380.483L531.966 379.231L548.839 369.512L549.576 370.764L532.703 380.483ZM558.049 365.904L557.312 364.653L565.785 359.793L566.522 361.045L558.049 365.904ZM570.722 358.541L569.985 357.29L574.185 354.86L574.922 356.112L570.722 358.541ZM579.195 353.682L578.458 352.43L595.331 342.711L596.068 343.963L579.195 353.682ZM604.541 339.104L603.804 337.852L612.277 332.993L613.014 334.244L604.541 339.104ZM617.214 331.741L616.477 330.489L620.677 328.059L621.413 329.311L617.214 331.741ZM625.687 326.881L624.95 325.63L641.823 315.911L642.559 317.162L625.687 326.881ZM651.033 312.303L650.296 311.051L658.769 306.192L659.506 307.444L651.033 312.303ZM663.706 305.014L662.969 303.762L667.168 301.332L667.905 302.584L663.706 305.014ZM672.179 300.081L671.442 298.829L688.315 289.11L689.051 290.362L672.179 300.081ZM697.524 285.502L696.788 284.251L705.261 279.391L705.998 280.643L697.524 285.502ZM710.197 278.213L709.461 276.962L713.66 274.532L714.397 275.783L710.197 278.213ZM718.671 273.28L717.934 272.028L734.806 262.31L735.543 263.561L718.671 273.28Z" fill="#1E1851"/>
</g>
</g>
<path opacity="0.46" d="M714.323 272.249L624.434 324.083L626.792 328.133L716.681 276.299L714.323 272.249Z" fill="url(#paint10_linear_211_6704)"/>
<path opacity="0.46" d="M432.131 434.084L394.775 455.583L395.438 456.761L432.867 435.262L432.131 434.084Z" fill="#DFD71E"/>
<path opacity="0.46" d="M585.384 345.73L488.864 401.393L489.601 402.571L586.121 346.908L585.384 345.73Z" fill="#13BCCA"/>
<path opacity="0.46" d="M662.895 303.836L566.375 359.425L567.112 360.603L663.632 305.014L662.895 303.836Z" fill="#4FB8C6"/>
<path opacity="0.46" d="M523.493 386.373L517.673 389.76L518.852 391.821L524.672 388.434L523.493 386.373Z" fill="#DFD71E"/>
<path opacity="0.46" d="M606.825 335.643L600.931 339.03L602.11 341.092L608.004 337.705L606.825 335.643Z" fill="#DFD71E"/>
<path opacity="0.46" d="M399.491 453.669L375.987 467.217L378.345 471.266L401.848 457.718L399.491 453.669Z" fill="#13BCCA"/>
<path opacity="0.46" d="M721.397 270.924L709.608 277.698L712.039 281.747L723.754 274.974L721.397 270.924Z" fill="#13BCCA"/>
</g>
<path opacity="0.6" d="M15.5464 362.885L69.3325 393.956L105.509 373.709L132.476 389.244L257.363 316.426L176.905 269.82L15.5464 362.885Z" fill="#E9E133"/>
<path opacity="0.6" d="M443.919 260.616L500.211 228.22L481.275 214.967L523.125 190.817L732.375 311.567L633.35 368.629L443.919 260.616Z" fill="#E3D900"/>
<path opacity="0.6" d="M371.05 157.758L446.719 201.419C450.256 203.481 450.256 208.561 446.719 210.623L358.083 261.794C354.546 263.856 354.546 268.936 358.083 270.998L371.05 278.508L329.2 302.658L224.575 242.283L371.05 157.758Z" fill="#E9E133"/>
<path d="M310.339 402.497V318.414L244.764 355.964V464.713L310.339 427.163V402.497Z" fill="#746F95"/>
<path d="M295.099 396.086L259.54 416.416L260.455 418.013L296.013 397.684L295.099 396.086Z" fill="#1D174D"/>
<path d="M283.231 385.339L259.504 398.904L260.419 400.502L284.146 386.936L283.231 385.339Z" fill="#1D174D"/>
<path d="M280.219 369.572L259.498 381.419L260.413 383.017L281.134 371.17L280.219 369.572Z" fill="#1D174D"/>
<path d="M283.227 350.365L259.5 363.93L260.415 365.528L284.142 351.963L283.227 350.365Z" fill="#1D174D"/>
<path d="M263.183 435.924L256.258 439.9V431.654L263.183 427.678V435.924Z" fill="#1D174D"/>
<path d="M249.848 455.804V360.088L250.29 359.867L305.328 328.427V339.619H303.413V331.593L251.69 361.192V452.564L303.413 422.966V355.302H305.328V424.07L304.813 424.365L249.848 455.804Z" fill="#1D174D"/>
<path d="M298.329 429.593V345.509L232.68 383.06V491.808L298.329 454.258V429.593Z" fill="#CCF1F4"/>
<path d="M282.981 423.125L247.423 443.454L248.337 445.052L283.896 424.722L282.981 423.125Z" fill="#1D174D"/>
<path d="M271.149 412.441L247.422 426.007L248.337 427.604L272.064 414.039L271.149 412.441Z" fill="#1D174D"/>
<path d="M268.138 396.675L247.417 408.521L248.331 410.119L269.052 398.273L268.138 396.675Z" fill="#1D174D"/>
<path d="M271.146 377.468L247.419 391.033L248.334 392.631L272.061 379.066L271.146 377.468Z" fill="#1D174D"/>
<path d="M251.1 463.02L244.174 466.995V458.749L251.1 454.773V463.02Z" fill="#1D174D"/>
<path d="M237.764 482.899V387.183L238.206 386.962L293.245 355.523V366.714H291.329V358.689L239.606 388.287V479.66L291.329 450.061V382.397H293.245V451.166L292.729 451.386L237.764 482.899Z" fill="#1D174D"/>
<path d="M259.352 502.116L363.756 441.447V338.073L259.352 398.742V502.116Z" fill="#66D6DD"/>
<path d="M270.11 472.297L269.667 471.634L271.509 470.53L271.878 471.192L270.11 472.297ZM275.12 469.278L274.751 468.615L277.993 466.701L278.362 467.364L275.12 469.278ZM281.604 465.523L281.235 464.86L284.477 462.946L284.845 463.608L281.604 465.523ZM288.014 461.694L287.645 461.032L290.887 459.117L291.256 459.78L288.014 461.694ZM294.498 457.866L294.129 457.203L297.371 455.289L297.739 455.951L294.498 457.866ZM300.981 454.037L300.613 453.374L303.855 451.46L304.223 452.123L300.981 454.037ZM307.391 450.208L307.023 449.546L310.265 447.631L310.633 448.294L307.391 450.208ZM313.875 446.453L313.507 445.791L316.749 443.876L317.117 444.539L313.875 446.453ZM320.359 442.624L319.991 441.962L323.233 440.048L323.601 440.71L320.359 442.624ZM326.769 438.796L326.401 438.133L329.643 436.219L330.011 436.882L326.769 438.796ZM333.253 434.967L332.885 434.305L336.126 432.39L336.495 433.053L333.253 434.967ZM339.442 430.623H338.705V426.868H339.442V430.623ZM339.442 423.113H338.705V419.358H339.442V423.113ZM339.442 415.603H338.705V411.848H339.442V415.603ZM339.442 408.093H338.705V404.338H339.442V408.093ZM339.442 400.583H338.705V396.828H339.442V400.583ZM339.442 393.146H338.705V389.391H339.442V393.146ZM339.442 385.636H338.705V381.881H339.442V385.636ZM339.442 378.126H338.705V374.371H339.442V378.126ZM339.442 370.616H338.705V366.861H339.442V370.616ZM339.442 363.18H338.705V359.425H339.442V363.18Z" fill="#1D174D"/>
<path d="M303.634 440.416C303.634 442.256 303.634 443.802 303.634 445.864C303.634 451.018 300.76 457.35 296.266 462.136L294.203 464.345L292.14 464.566C287.719 465.081 284.845 462.062 284.845 456.982C284.845 453.08 284.845 448.809 284.845 446.821C289.487 443.434 294.129 435.703 294.129 435.703C294.129 435.703 297.518 437.691 303.56 435.777C303.56 436.44 303.56 437.691 303.56 439.238" fill="#DFD71E"/>
<path d="M303.634 440.416C303.634 442.256 303.634 443.802 303.634 445.864C303.634 451.018 300.76 457.35 296.266 462.136L294.203 464.345L292.14 464.566C287.719 465.081 284.845 462.062 284.845 456.982C284.845 453.08 284.845 448.809 284.845 446.821C289.487 443.434 294.129 435.703 294.129 435.703C294.129 435.703 297.518 437.691 303.56 435.777C303.56 436.44 303.56 437.691 303.56 439.238" fill="#EBE967"/>
<path d="M291.624 463.314C290.077 463.314 288.824 462.872 287.793 461.915C286.393 460.663 285.656 458.675 285.656 456.172C285.656 452.711 285.656 449.177 285.656 447.41V447.189L285.803 447.042C289.782 444.097 293.908 437.323 293.908 437.25L294.129 436.955L294.424 437.102C294.424 437.102 297.371 438.722 302.455 437.176L302.971 437.029V440.195H302.234V438.059C298.034 439.238 295.308 438.354 294.424 437.986C293.613 439.311 290.077 444.833 286.393 447.557C286.393 449.398 286.393 452.785 286.393 456.098C286.393 458.381 287.056 460.222 288.308 461.326C289.34 462.283 290.814 462.651 292.435 462.43L294.129 462.209L295.824 460.369C299.729 456.246 302.234 450.724 302.234 446.232V441.667H302.971V446.232C302.971 450.871 300.392 456.614 296.34 460.884L294.424 462.946L292.508 463.167C292.213 463.24 291.919 463.314 291.624 463.314Z" fill="#1F1A50"/>
<path d="M293.834 454.405L290.371 453.374L290.74 452.122L293.171 452.859L297.96 443.802L299.139 444.392L293.834 454.405Z" fill="#1F1A50"/>
<path d="M352.999 481.058L337.6 490.115V432.758L352.999 423.628V481.058Z" fill="#1E1851"/>
<path d="M348.726 493.06L355.652 488.937C356.241 488.568 356.388 487.611 355.873 487.685L353.589 487.979V480.69L348.726 483.562V493.06Z" fill="#1E1851"/>
<path d="M317.854 417.738L317.191 418.548L318.001 420.389L316.012 423.408L318.001 424.807L320.138 422.23L319.696 419.653C319.77 419.579 317.854 417.738 317.854 417.738Z" fill="white"/>
<path d="M346.442 404.043L343.126 405.958V400.215L346.442 398.227V404.043Z" fill="white"/>
<path d="M342.684 496.594L349.61 492.471C350.199 492.103 350.347 491.145 349.831 491.219L347.547 491.514V484.224L342.684 487.096V496.594Z" fill="#1E1851"/>
<path d="M349.905 440.637H349.757V476.199H349.905V440.637Z" fill="#1E1851"/>
<path d="M349.905 479.438H349.757V482.899H349.905V479.438Z" fill="#1E1851"/>
<path d="M352.999 423.629L354.841 403.602C354.62 401.098 352.262 399.847 349.905 401.246L339.59 407.357C335.906 409.418 334.137 412.658 332.664 415.529L326.254 428.194L320.285 421.567L317.559 425.175L323.748 436.366C324.559 437.25 326.254 436.661 327.506 435.041C327.58 434.894 327.653 434.82 327.727 434.673C327.874 434.452 328.022 434.231 328.169 433.937L336.274 418.106L337.526 432.758L352.999 423.629Z" fill="#A29FB9"/>
<path d="M345.042 406.768H344.821V428.414H345.042V406.768Z" fill="#1E1851"/>
<path d="M348.063 402.35V405.222L344.968 404.559L341.874 408.829V405.958" fill="white"/>
<path d="M341.726 409.197L341.8 405.958H342.021V408.388L344.894 404.412L347.915 405.074V402.35H348.21V405.369L344.968 404.706L341.726 409.197Z" fill="#1E1851"/>
<path d="M352.999 427.089L337.6 436.145V432.758L352.999 423.628V427.089Z" fill="white"/>
<path d="M353.957 426.5L343.347 434.452C342.758 434.894 342.242 434.82 342.095 434.305L338.337 421.42C338.116 420.757 338.558 419.726 339.295 419.284L349.905 411.333C350.494 410.891 351.01 410.964 351.157 411.48L354.915 424.365C355.062 425.027 354.62 425.985 353.957 426.5Z" fill="#1E1851"/>
<path d="M342.61 434.82C342.537 434.82 342.463 434.82 342.389 434.82C342.168 434.746 342.021 434.599 341.947 434.378L338.189 421.493C337.968 420.831 338.41 419.8 339.147 419.211L349.757 411.259C350.126 411.038 350.42 410.891 350.715 411.038C350.936 411.112 351.083 411.259 351.157 411.48L354.915 424.365C355.136 425.027 354.694 426.058 353.957 426.647L343.347 434.525C343.126 434.746 342.831 434.82 342.61 434.82ZM350.494 411.112C350.273 411.112 350.052 411.185 349.831 411.333L339.221 419.284C338.558 419.8 338.116 420.757 338.337 421.346L342.094 434.231C342.168 434.452 342.242 434.525 342.389 434.599C342.61 434.673 342.905 434.599 343.2 434.378L353.81 426.426C354.473 425.911 354.915 424.954 354.694 424.365L350.936 411.48C350.862 411.259 350.789 411.185 350.641 411.112C350.641 411.112 350.568 411.112 350.494 411.112Z" fill="#1E1851"/>
<path d="M342.508 417.937L339.323 420.319L339.764 420.908L342.95 418.526L342.508 417.937Z" fill="white"/>
<path d="M348.351 415.394L339.915 421.701L340.356 422.291L348.793 415.983L348.351 415.394Z" fill="white"/>
<path d="M352.41 421.64L350.42 425.027L348.947 424.659L349.978 421.714L351.083 421.199L351.452 420.831L352.41 421.64Z" fill="white"/>
<path d="M358.599 414.278C358.599 413.983 358.525 413.762 358.378 413.541L355.946 407.357L354.767 403.675L353.81 414.278L354.178 415.824L350.347 421.199L352.41 422.377L356.757 418.474C358.083 417.296 358.894 415.529 358.599 414.278Z" fill="#A29FB9"/>
<path d="M343.126 401.687V397.049C343.126 395.208 344.452 392.926 346.073 391.968C347.694 391.011 349.02 391.748 349.02 393.515V398.08C349.02 399.258 347.989 400.73 346.957 400.878L343.126 401.687Z" fill="white"/>
<path d="M343.421 395.576C344.452 392.116 345.41 391.821 350.862 388.582C350.862 388.582 351.304 392.189 349.094 393.515C349.02 391.821 347.62 393.073 343.421 395.576Z" fill="#1E1851"/>
<path d="M346.409 401.138L344.31 401.539L344.352 401.756L346.45 401.355L346.409 401.138Z" fill="#1E1851"/>
<path d="M317.169 391.972L278.223 414.974L279.16 416.558L318.106 393.557L317.169 391.972Z" fill="white"/>
<path d="M317.167 396.464L278.22 419.466L279.157 421.05L318.104 398.049L317.167 396.464Z" fill="white"/>
<path d="M317.164 400.956L278.218 423.958L279.155 425.542L318.101 402.541L317.164 400.956Z" fill="white"/>
<path d="M295.636 400.225L278.256 410.49L279.193 412.074L296.573 401.81L295.636 400.225Z" fill="white"/>
<path d="M549.723 224.686L498.295 254.063L639.244 335.79L690.967 306.266L549.723 224.686Z" fill="#1E194E"/>
<path d="M499.621 255.168L515.536 151.941L655.969 233.816L640.054 336.159L499.621 255.168Z" fill="#A29FB9"/>
<path d="M572.785 287.196L560.26 279.98L571.606 198.695L584.058 205.984L572.785 287.196Z" fill="#1E1851"/>
<path d="M560.26 279.98L531.23 263.119L542.576 181.908L571.606 198.695L560.26 279.98Z" fill="url(#paint11_linear_211_6704)"/>
<path d="M535.724 265.77L538.671 244.639L546.997 249.425L544.05 270.556" fill="white"/>
<path d="M551.344 194.204L546.113 191.185L545.155 198.253L550.313 201.272L551.344 194.204Z" fill="white"/>
<path d="M558.859 198.548L553.628 195.529L552.67 202.597L557.902 205.616L558.859 198.548Z" fill="white"/>
<path d="M566.375 202.965L561.144 199.947L560.186 207.015L565.417 210.034L566.375 202.965Z" fill="white"/>
<path d="M599.457 288.668L568.733 270.85C559.228 265.328 552.818 251.854 554.439 240.589L556.06 228.882C557.607 217.691 566.596 213.052 576.027 218.574L606.751 236.392C616.256 241.915 622.666 255.388 621.045 266.654L619.424 278.36C617.877 289.552 608.962 294.19 599.457 288.668Z" fill="#9FD9E2"/>
<path d="M559.46 242.406L558.61 243.871L570.019 250.483L570.869 249.018L559.46 242.406Z" fill="#1F1A50"/>
<path d="M574.298 251.007L573.448 252.471L584.856 259.084L585.707 257.619L574.298 251.007Z" fill="#1F1A50"/>
<path d="M589.172 259.584L588.322 261.049L599.731 267.661L600.581 266.196L589.172 259.584Z" fill="#1F1A50"/>
<path d="M603.946 268.167L603.095 269.632L614.505 276.244L615.355 274.779L603.946 268.167Z" fill="#1F1A50"/>
<path d="M558.181 250.431L557.811 251.068L579.929 263.886L580.299 263.249L558.181 250.431Z" fill="#1D174D"/>
<path d="M557.697 253.915L557.327 254.552L579.445 267.369L579.815 266.732L557.697 253.915Z" fill="#1D174D"/>
<path d="M568.364 239.485C567.848 239.485 567.333 239.338 566.817 239.043L562.838 236.761C560.996 235.73 559.817 233.079 560.112 230.944L560.407 228.809C560.554 227.704 561.143 226.821 561.954 226.453C562.764 226.085 563.649 226.158 564.606 226.674L568.585 228.956C570.427 229.987 571.606 232.637 571.311 234.773L571.017 236.908C570.869 238.012 570.28 238.896 569.469 239.264C569.101 239.411 568.732 239.485 568.364 239.485ZM562.912 226.968C562.691 226.968 562.396 227.042 562.175 227.115C561.586 227.41 561.217 227.999 561.07 228.882L560.775 231.018C560.554 232.858 561.586 235.141 563.133 236.024L567.112 238.307C567.775 238.675 568.511 238.749 569.027 238.528C569.617 238.233 569.985 237.644 570.132 236.761L570.427 234.625C570.648 232.785 569.617 230.502 568.069 229.619L564.091 227.336C563.722 227.115 563.28 226.968 562.912 226.968Z" fill="#1D174D"/>
<path d="M526.578 260.078L526.208 260.715L580.509 292.188L580.878 291.551L526.578 260.078Z" fill="#1D174D"/>
<path d="M584.608 293.667L584.239 294.303L593.162 299.475L593.532 298.838L584.608 293.667Z" fill="#1D174D"/>
<path d="M520.923 285.816C532.168 279.255 532.053 258.137 520.667 238.647C509.28 219.157 490.933 208.676 479.687 215.237C468.442 221.797 468.557 242.916 479.944 262.406C491.33 281.896 509.677 292.377 520.923 285.816Z" fill="#EBE967"/>
<path d="M503.453 258.702C503.453 257.745 503.232 256.788 502.716 255.904C502.2 255.021 501.463 254.063 500.285 252.885C499.179 251.707 498.148 250.677 497.337 249.719C496.527 248.762 495.79 247.805 495.201 246.848C494.611 245.891 494.169 244.86 493.801 243.829C493.432 242.798 493.285 241.694 493.285 240.516C493.285 238.454 493.874 237.129 494.98 236.466C496.085 235.804 497.632 235.951 499.474 236.761V232.932L501.979 234.405V238.307C503.821 239.706 505.295 241.399 506.326 243.461C507.358 245.523 507.874 247.731 507.874 250.087L503.305 247.437C503.305 245.964 503.011 244.786 502.495 243.755C501.979 242.725 501.316 241.988 500.432 241.473C499.548 240.958 498.885 240.884 498.443 241.178C498 241.473 497.706 242.136 497.706 243.093C497.706 243.976 497.927 244.86 498.369 245.67C498.811 246.48 499.695 247.51 500.948 248.836C502.2 250.161 503.232 251.266 504.042 252.223C504.853 253.18 505.516 254.137 506.105 255.094C506.695 256.051 507.063 257.009 507.358 258.039C507.652 258.996 507.8 260.101 507.8 261.205C507.8 263.267 507.21 264.592 506.105 265.255C505 265.918 503.453 265.77 501.537 264.887V268.494L499.032 267.022V263.488C496.895 262.015 495.201 260.175 494.022 257.966C492.843 255.83 492.253 253.474 492.253 251.045L496.822 253.695C496.822 255.094 497.116 256.419 497.706 257.524C498.295 258.628 499.179 259.512 500.285 260.175C501.242 260.69 501.905 260.837 502.495 260.616C503.232 260.248 503.453 259.659 503.453 258.702Z" fill="#1E1851"/>
<path d="M511.705 283.294C508.168 283.294 504.263 282.116 500.211 279.76C486.138 271.66 474.718 251.928 474.718 235.804C474.718 227.999 477.37 222.182 482.159 219.385C487.022 216.587 493.506 217.249 500.358 221.152C505.442 224.097 510.305 228.588 514.504 234.257L514.283 234.478C510.084 228.883 505.221 224.391 500.211 221.446C493.432 217.544 487.096 216.881 482.38 219.679C477.665 222.403 475.086 228.146 475.086 235.877C475.086 251.928 486.433 271.513 500.432 279.539C507.21 283.441 513.547 284.104 518.262 281.306C522.978 278.582 525.556 272.839 525.556 265.108C525.556 258.26 523.42 250.308 519.515 242.872L519.809 242.725C523.714 250.235 525.851 258.187 525.851 265.108C525.851 272.912 523.199 278.729 518.41 281.527C516.346 282.705 514.136 283.294 511.705 283.294Z" fill="#1E1851"/>
<path d="M498.516 324.083V324.157V337.852V443.287L599.825 501.748V396.313V382.618V382.544L498.516 324.083Z" fill="#453F72"/>
<path d="M591.278 506.754L489.969 448.293V329.163L591.278 387.624V506.754Z" fill="#A29FB9"/>
<path d="M591.278 401.246L489.969 342.785V329.09L591.278 387.551V401.246Z" fill="white"/>
<path opacity="0.56" d="M532.482 402.718L550.386 412.953V388.361L532.482 378.126V402.718Z" fill="url(#paint12_linear_211_6704)"/>
<path d="M535.724 401.246L547.071 407.725C547.218 407.798 547.292 407.725 547.292 407.578V403.381C547.292 403.234 547.218 403.013 547.071 402.939L535.724 396.46C535.577 396.386 535.503 396.46 535.503 396.607V400.804C535.503 401.025 535.577 401.172 535.724 401.246Z" fill="#1E194E"/>
<path opacity="0.56" d="M532.482 431.286L550.386 441.52V417.002L532.482 406.768V431.286Z" fill="url(#paint13_linear_211_6704)"/>
<path d="M535.724 429.887L547.071 436.366C547.218 436.44 547.292 436.366 547.292 436.219V432.022C547.292 431.875 547.218 431.654 547.071 431.58L535.724 425.101C535.577 425.028 535.503 425.101 535.503 425.248V429.445C535.503 429.592 535.577 429.813 535.724 429.887Z" fill="#1E194E"/>
<path opacity="0.56" d="M511.336 391.011L529.24 401.246V376.727L511.336 366.493V391.011Z" fill="url(#paint14_linear_211_6704)"/>
<path d="M514.652 389.612L525.998 396.092C526.146 396.165 526.219 396.092 526.219 395.944V391.748C526.219 391.6 526.146 391.379 525.998 391.306L514.652 384.826C514.504 384.753 514.43 384.826 514.43 384.974V389.171C514.357 389.318 514.504 389.465 514.652 389.612Z" fill="#1E194E"/>
<path opacity="0.56" d="M511.336 419.653L529.24 429.887V405.295L511.336 395.061V419.653Z" fill="url(#paint15_linear_211_6704)"/>
<path d="M514.652 418.18L525.998 424.659C526.146 424.733 526.219 424.659 526.219 424.512V420.315C526.219 420.168 526.146 419.947 525.998 419.873L514.652 413.394C514.504 413.32 514.43 413.394 514.43 413.541V417.738C514.357 417.959 514.504 418.106 514.652 418.18Z" fill="#1E194E"/>
<path opacity="0.56" d="M553.775 414.572L571.68 424.807V400.215L553.775 389.98V414.572Z" fill="url(#paint16_linear_211_6704)"/>
<path d="M557.017 413.1L568.364 419.579C568.511 419.653 568.585 419.579 568.585 419.432V415.235C568.585 415.088 568.511 414.867 568.364 414.793L557.017 408.314C556.87 408.24 556.796 408.314 556.796 408.461V412.658C556.796 412.879 556.87 413.026 557.017 413.1Z" fill="#1E194E"/>
<path opacity="0.56" d="M532.482 459.412L550.386 469.646V445.054L532.482 434.82V459.412Z" fill="url(#paint17_linear_211_6704)"/>
<path d="M535.724 457.939L547.071 464.418C547.218 464.492 547.292 464.418 547.292 464.271V460.074C547.292 459.927 547.218 459.706 547.071 459.633L535.724 453.153C535.577 453.08 535.503 453.153 535.503 453.301V457.497C535.503 457.718 535.577 457.866 535.724 457.939Z" fill="#1E194E"/>
<path opacity="0.56" d="M511.336 447.705L529.24 457.939V433.347L511.336 423.113V447.705Z" fill="url(#paint18_linear_211_6704)"/>
<path d="M514.652 446.232L525.998 452.711C526.146 452.785 526.219 452.711 526.219 452.564V448.367C526.219 448.22 526.146 447.999 525.998 447.926L514.652 441.446C514.504 441.373 514.43 441.446 514.43 441.594V445.79C514.357 446.011 514.504 446.159 514.652 446.232Z" fill="#1E194E"/>
<path opacity="0.56" d="M553.775 471.266L571.68 481.5V456.908L553.775 446.674V471.266Z" fill="url(#paint19_linear_211_6704)"/>
<path d="M557.017 469.793L568.364 476.273C568.511 476.346 568.585 476.272 568.585 476.125V471.928C568.585 471.781 568.511 471.56 568.364 471.487L557.017 465.007C556.87 464.934 556.796 465.007 556.796 465.155V469.351C556.796 469.572 556.87 469.72 557.017 469.793Z" fill="#1E194E"/>
<path opacity="0.56" d="M553.775 443.214L571.68 453.448V428.856L553.775 418.622V443.214Z" fill="url(#paint20_linear_211_6704)"/>
<path d="M557.017 441.741L568.364 448.22C568.511 448.294 568.585 448.22 568.585 448.073V443.876C568.585 443.729 568.511 443.508 568.364 443.434L557.017 436.955C556.87 436.882 556.796 436.955 556.796 437.102V441.299C556.796 441.446 556.87 441.667 557.017 441.741Z" fill="#1E194E"/>
<path d="M506.105 489.01L511.336 492.029C513.915 493.575 517.231 491.661 517.231 488.642V473.401V408.461C517.231 407.062 516.494 405.737 515.241 405.074L479.507 384.385C476.928 382.839 473.612 384.753 473.612 387.772V467.953C473.612 469.352 474.349 470.677 475.602 471.34L485.475 477.083L506.105 489.01Z" fill="#72CBD5"/>
<path d="M495.79 480.838C495.127 480.838 494.39 480.617 493.579 480.175C491.001 478.702 488.938 475.095 488.938 472.15C488.938 470.677 489.453 469.499 490.411 468.984C491.369 468.395 492.622 468.542 493.948 469.278C496.527 470.751 498.59 474.358 498.59 477.304C498.59 478.776 498.074 479.954 497.116 480.47C496.748 480.69 496.305 480.838 495.79 480.838ZM491.737 469.278C491.369 469.278 491.074 469.352 490.779 469.499C490.043 469.941 489.674 470.824 489.674 472.076C489.674 474.8 491.59 478.113 493.948 479.512C495.053 480.101 496.011 480.249 496.748 479.807C497.484 479.365 497.853 478.482 497.853 477.23C497.853 474.506 495.937 471.192 493.579 469.793C492.916 469.499 492.327 469.278 491.737 469.278Z" fill="#1D174D"/>
<path d="M488.201 428.562C487.243 428.562 486.212 428.267 485.18 427.604C481.57 425.469 478.623 420.389 478.623 416.192C478.623 414.057 479.359 412.511 480.686 411.774C482.012 411.038 483.706 411.185 485.548 412.216C489.159 414.351 492.106 419.432 492.106 423.628C492.106 425.764 491.369 427.31 490.043 428.046C489.453 428.414 488.864 428.562 488.201 428.562ZM482.528 412.069C482.012 412.069 481.496 412.216 481.054 412.437C479.949 413.026 479.359 414.425 479.359 416.266C479.359 420.242 482.086 425.027 485.548 427.015C487.096 427.899 488.569 428.12 489.675 427.457C490.78 426.868 491.369 425.469 491.369 423.628C491.369 419.653 488.569 414.867 485.18 412.879C484.222 412.363 483.338 412.069 482.528 412.069Z" fill="#1E194E"/>
<path d="M485.254 430.697L476.633 440.342L493.874 450.355L485.254 430.697Z" fill="#00B8C5"/>
<path d="M505.295 456.614L497.558 452.049V437.471L510.084 444.834V454.184H509.347V445.275L498.295 438.796V451.607L505.663 455.951L505.295 456.614Z" fill="#1E194E"/>
<path d="M510.821 460.663L508.463 459.338V456.688L510.821 458.086V460.663Z" fill="#1E194E"/>
<path d="M507.284 439.606L500.063 435.409L496.527 426.279L500.211 420.978L507.431 425.175L510.968 434.305L507.284 439.606ZM500.727 434.894L507.063 438.649L510.158 434.231L506.916 425.764L500.579 422.009L497.485 426.426L500.727 434.894Z" fill="#1E194E"/>
<path d="M493.653 450.208L476.928 440.416L485.254 431.139L493.653 450.208ZM478.181 440.269L492.106 448.441L485.106 432.538L478.181 440.269Z" fill="#1E194E"/>
<path d="M473.612 387.772L517.231 413.542V479.733L473.612 454.552V387.772Z" fill="url(#paint21_linear_211_6704)"/>
<path d="M474.096 387.61L473.174 389.204L516.739 414.378L517.661 412.784L474.096 387.61Z" fill="#1D174D"/>
<path d="M474.056 453.761L473.134 455.354L516.699 480.528L517.621 478.935L474.056 453.761Z" fill="#1D174D"/>
<path opacity="0.5" d="M188.546 274.753L75.3743 340.65V222.698L193.041 161.145L188.546 274.753Z" fill="url(#paint22_linear_211_6704)"/>
<path d="M111.404 283.662L107.572 285.87L108.383 241.325L110.593 240.074L111.404 283.662Z" fill="#1E1851"/>
<path d="M162.095 254.137L158.337 256.346L159.148 211.801L161.358 210.475L162.095 254.137Z" fill="#1E1851"/>
<path d="M169.831 260.542L99.6148 301.48C98.5096 302.142 97.6255 301.553 97.6255 300.302V290.804C97.6255 289.552 98.5096 287.932 99.6148 287.343L169.831 246.406C170.937 245.743 171.821 246.332 171.821 247.584V257.082C171.821 258.334 170.937 259.88 169.831 260.542Z" fill="#EBE967"/>
<path d="M158.221 261.781C158.952 260.466 158.94 259.064 158.193 258.649C157.446 258.234 156.247 258.964 155.516 260.279C154.784 261.594 154.797 262.996 155.544 263.411C156.291 263.826 157.489 263.096 158.221 261.781Z" fill="white"/>
<path d="M166.225 257.088C166.956 255.773 166.944 254.371 166.197 253.956C165.45 253.541 164.251 254.271 163.52 255.586C162.788 256.901 162.801 258.304 163.548 258.718C164.295 259.133 165.493 258.403 166.225 257.088Z" fill="white"/>
<path d="M148.877 265.178L103.44 291.674L103.811 292.31L149.248 265.814L148.877 265.178Z" fill="#1E1851"/>
<path d="M138.076 241.399C133.949 242.504 129.823 246.185 126.876 251.265L130.118 253.18C132.476 248.983 135.939 245.89 139.033 245.081C139.549 244.933 139.991 244.86 140.433 244.86C141.096 244.86 141.686 245.007 142.202 245.301L144.044 242.062C142.349 241.031 140.286 240.81 138.076 241.399Z" fill="#1E1851"/>
<path d="M113.835 243.534L117.077 245.449C124.15 233.079 134.392 223.802 143.896 221.299C145.517 220.857 147.138 220.636 148.612 220.636C151.117 220.636 153.327 221.225 155.243 222.403L157.085 219.164C153.106 216.807 148.17 216.292 142.791 217.691C132.476 220.342 121.35 230.281 113.835 243.534Z" fill="#1E1851"/>
<path d="M140.507 229.545C133.139 231.46 125.624 238.16 120.393 247.437L123.634 249.351C128.35 241.031 135.202 234.846 141.465 233.227C142.57 232.932 143.602 232.785 144.559 232.785C146.107 232.785 147.507 233.153 148.759 233.889L150.601 230.65C147.728 228.883 144.265 228.514 140.507 229.545Z" fill="#1E1851"/>
<path d="M137.985 257.833C139.152 255.736 139.117 253.491 137.908 252.82C136.698 252.148 134.772 253.303 133.606 255.401C132.44 257.498 132.475 259.742 133.684 260.414C134.893 261.086 136.819 259.93 137.985 257.833Z" fill="#1E1851"/>
<path d="M67.122 363.695L62.2592 366.493C59.8277 367.892 56.8069 366.125 56.8069 363.327V349.19V289.11C56.8069 287.785 57.47 286.607 58.6489 285.944L91.731 266.801C94.1624 265.402 97.1833 267.169 97.1833 269.967V344.257C97.1833 345.583 96.5202 346.761 95.3413 347.423L86.205 352.725L67.122 363.695Z" fill="#A29FB9"/>
<path d="M76.7003 356.111C76.2582 356.111 75.8162 356.038 75.4478 355.817C74.5636 355.302 74.0479 354.271 74.0479 352.798C74.0479 350.074 75.9635 346.687 78.3949 345.288C79.6475 344.552 80.8264 344.478 81.7105 344.994C82.5947 345.509 83.1104 346.54 83.1104 348.012C83.1104 350.737 81.1948 354.124 78.7633 355.522C78.0266 355.964 77.2898 356.111 76.7003 356.111ZM80.3843 345.509C79.8685 345.509 79.2791 345.656 78.6897 346.024C76.4793 347.276 74.711 350.369 74.711 352.872C74.711 353.976 75.0794 354.86 75.7425 355.228C76.4056 355.596 77.2898 355.522 78.3213 354.933C80.5317 353.682 82.3 350.589 82.3 348.086C82.3 346.982 81.9316 346.098 81.2685 345.73C81.0474 345.583 80.7527 345.509 80.3843 345.509Z" fill="#1D174D"/>
<path d="M56.8806 293.896L97.1833 270.629V331.814L56.8806 355.081V293.896Z" fill="#746F95"/>
<path d="M79.7948 300.449L74.1215 303.688C74.0478 303.762 73.9741 303.688 73.9741 303.615V297.724C73.9741 297.651 74.0478 297.577 74.1215 297.504L79.7948 294.264C79.8685 294.19 79.9422 294.264 79.9422 294.338V300.228C79.9422 300.375 79.8685 300.449 79.7948 300.449Z" fill="white"/>
<path d="M79.7948 309.063L74.1215 312.303C74.0478 312.376 73.9741 312.303 73.9741 312.229V306.339C73.9741 306.265 74.0478 306.192 74.1215 306.118L79.7948 302.878C79.8685 302.805 79.9422 302.878 79.9422 302.952V308.842C79.9422 308.916 79.8685 308.99 79.7948 309.063Z" fill="white"/>
<path d="M87.8995 296.105L82.2262 299.344C82.1525 299.418 82.0789 299.344 82.0789 299.271V293.38C82.0789 293.307 82.1525 293.233 82.2262 293.16L87.8995 289.92C87.9732 289.846 88.0469 289.92 88.0469 289.994V295.884C87.9732 296.031 87.9732 296.105 87.8995 296.105Z" fill="white"/>
<path d="M87.8995 304.719L82.2262 307.959C82.1525 308.032 82.0789 307.959 82.0789 307.885V301.995C82.0789 301.921 82.1525 301.848 82.2262 301.774L87.8995 298.534C87.9732 298.461 88.0469 298.534 88.0469 298.608V304.498C87.9732 304.572 87.9732 304.646 87.8995 304.719Z" fill="white"/>
<path d="M71.6901 305.014L66.0167 308.253C65.9431 308.327 65.8694 308.253 65.8694 308.18V302.289C65.8694 302.216 65.9431 302.142 66.0167 302.068L71.6901 298.829C71.7637 298.755 71.8374 298.829 71.8374 298.902V304.793C71.8374 304.866 71.7637 304.94 71.6901 305.014Z" fill="white"/>
<path d="M71.6901 313.555L66.0167 316.794C65.9431 316.868 65.8694 316.794 65.8694 316.721V310.83C65.8694 310.757 65.9431 310.683 66.0167 310.609L71.6901 307.37C71.7637 307.296 71.8374 307.37 71.8374 307.443V313.334C71.8374 313.407 71.7637 313.481 71.6901 313.555Z" fill="white"/>
<path d="M79.7948 317.604L74.1215 320.844C74.0478 320.917 73.9741 320.844 73.9741 320.77V314.88C73.9741 314.806 74.0478 314.732 74.1215 314.659L79.7948 311.419C79.8685 311.346 79.9422 311.419 79.9422 311.493V317.383C79.9422 317.457 79.8685 317.53 79.7948 317.604Z" fill="white"/>
<path d="M87.8995 313.26L82.2262 316.5C82.1525 316.573 82.0789 316.5 82.0789 316.426V310.536C82.0789 310.462 82.1525 310.388 82.2262 310.315L87.8995 307.075C87.9732 307.002 88.0469 307.075 88.0469 307.149V313.039C87.9732 313.113 87.9732 313.186 87.8995 313.26Z" fill="white"/>
<path d="M71.6901 322.095L66.0167 325.335C65.9431 325.409 65.8694 325.335 65.8694 325.261V319.371C65.8694 319.298 65.9431 319.224 66.0167 319.15L71.6901 315.911C71.7637 315.837 71.8374 315.911 71.8374 315.984V321.875C71.8374 321.948 71.7637 322.095 71.6901 322.095Z" fill="white"/>
<path opacity="0.5" d="M56.8806 293.896L97.1833 270.04V331.814L56.8806 355.081V293.896Z" fill="url(#paint23_linear_211_6704)"/>
<path d="M96.988 270.319L56.667 293.6L57.0356 294.237L97.3567 270.957L96.988 270.319Z" fill="#1D174D"/>
<path d="M96.9761 331.51L56.655 354.791L57.0236 355.428L97.3447 332.148L96.9761 331.51Z" fill="#1D174D"/>
<path d="M210.355 333.802L128.203 381.661L81.1213 319.518L163.127 271.734L210.355 333.802Z" fill="#746F95"/>
<path d="M128.35 375.918L87.2368 321.654L87.6052 321.433L163.127 277.403L204.24 331.667L203.872 331.888L128.35 375.918ZM88.342 321.948L128.571 374.96L203.208 331.52L162.979 278.508L88.342 321.948Z" fill="#1E1851"/>
<path d="M87.7524 321.801L163.053 277.992L203.65 331.593L128.424 375.476L87.7524 321.801Z" fill="#CCF1F4"/>
<path d="M144.265 316.573L137.339 320.623C137.265 320.697 137.118 320.623 137.118 320.549L132.55 314.291C132.476 314.217 132.476 314.07 132.623 314.07L139.549 310.02C139.623 309.947 139.77 310.02 139.77 310.094L144.338 316.353C144.412 316.426 144.338 316.5 144.265 316.573Z" fill="#D1CFDC"/>
<path d="M150.896 325.556L143.97 329.605C143.896 329.679 143.749 329.605 143.749 329.532L139.181 323.273C139.107 323.2 139.107 323.052 139.254 323.052L146.18 319.003C146.254 318.929 146.401 319.003 146.401 319.077L150.969 325.335C150.969 325.409 150.969 325.556 150.896 325.556Z" fill="#D1CFDC"/>
<path d="M154.211 311.051L147.286 315.101C147.212 315.174 147.065 315.101 147.065 315.027L142.496 308.769C142.423 308.695 142.423 308.548 142.57 308.548L149.496 304.498C149.57 304.425 149.717 304.498 149.717 304.572L154.285 310.83C154.359 310.904 154.285 310.978 154.211 311.051Z" fill="#D1CFDC"/>
<path d="M160.843 320.107L153.917 324.157C153.843 324.231 153.696 324.157 153.696 324.083L149.127 317.825C149.054 317.751 149.054 317.604 149.201 317.604L156.127 313.554C156.201 313.481 156.348 313.554 156.348 313.628L160.916 319.886C160.916 319.96 160.916 320.034 160.843 320.107Z" fill="#D1CFDC"/>
<path d="M134.392 322.243L127.466 326.292C127.392 326.366 127.245 326.292 127.245 326.218L122.677 319.96C122.603 319.886 122.603 319.739 122.75 319.739L129.676 315.69C129.75 315.616 129.897 315.69 129.897 315.763L134.465 322.022C134.465 322.095 134.465 322.169 134.392 322.243Z" fill="#D1CFDC"/>
<path d="M140.949 331.299L134.023 335.349C133.949 335.422 133.802 335.349 133.802 335.275L129.234 329.017C129.16 328.943 129.16 328.796 129.308 328.796L136.233 324.746C136.307 324.672 136.455 324.746 136.455 324.82L141.023 331.078C141.096 331.152 141.023 331.225 140.949 331.299Z" fill="#D1CFDC"/>
<path d="M157.527 334.612L150.601 338.662C150.528 338.735 150.38 338.662 150.38 338.588L145.812 332.33C145.738 332.256 145.738 332.109 145.886 332.109L152.812 328.059C152.885 327.986 153.033 328.059 153.033 328.133L157.601 334.391C157.601 334.465 157.601 334.612 157.527 334.612Z" fill="#D1CFDC"/>
<path d="M167.474 329.164L160.548 333.213C160.474 333.287 160.327 333.213 160.327 333.14L155.759 326.881C155.685 326.808 155.685 326.66 155.833 326.66L162.758 322.611C162.832 322.537 162.979 322.611 162.979 322.684L167.548 328.943C167.548 329.016 167.548 329.09 167.474 329.164Z" fill="#D1CFDC"/>
<path d="M147.58 340.282L140.654 344.331C140.581 344.405 140.433 344.331 140.433 344.258L135.865 337.999C135.792 337.926 135.792 337.778 135.939 337.778L142.865 333.729C142.939 333.655 143.086 333.729 143.086 333.802L147.654 340.061C147.654 340.134 147.654 340.282 147.58 340.282Z" fill="#D1CFDC"/>
<path opacity="0.5" d="M163.053 277.992L168.947 285.797L203.65 331.593L186.115 342.417L91.2891 319.739L163.053 277.992Z" fill="url(#paint24_linear_211_6704)"/>
<path opacity="0.56" d="M344.231 7.99829L395.291 106.365L302.602 159.157V262.678L295.234 255.904L250.142 138.983V83.2462L301.644 31.8538L344.231 7.99829Z" fill="url(#paint25_linear_211_6704)"/>
<path opacity="0.5" d="M295.234 255.904L387.849 203.113V100.991L295.234 153.782V255.904Z" fill="url(#paint26_linear_211_6704)"/>
<path d="M344.231 57.4763L301.644 81.2582V31.8538L344.231 7.99829V57.4763Z" fill="#46C2CE"/>
<path d="M344.231 8.14562L301.644 32.0011V26.2581C301.644 24.8592 302.823 23.0185 304.223 22.2086L341.652 1.29822C343.052 0.488307 344.231 1.0037 344.231 2.40264V8.14562Z" fill="white"/>
<path d="M311.591 51.4389L308.349 54.0895C307.907 54.4576 307.539 54.3104 307.391 53.795L306.286 46.5794C306.212 46.064 306.507 45.3277 306.875 44.9596L310.117 42.309C310.559 41.9409 310.928 42.0881 311.075 42.6035L312.18 49.8191C312.328 50.4081 312.033 51.0707 311.591 51.4389Z" fill="#1E1851"/>
<path d="M318.443 50.7027L316.675 54.5313L313.728 51.7335L312.917 51.8807L312.401 50.3345L312.696 48.1993L310.633 47.3894L311.149 46.874H314.022L315.275 49.1565L318.443 50.7027Z" fill="white"/>
<path d="M318.59 49.0093L315.275 55.7831L324.559 61.6733L327.948 54.0896L318.59 49.0093Z" fill="#1E1851"/>
<path d="M326.4 40.0266L330.232 37.8914V30.7495L326.4 32.8847V40.0266Z" fill="white"/>
<path d="M326.769 140.234L321.98 142.959V154.224L326.769 151.499V140.234Z" fill="white"/>
<path d="M344.084 143.769L337.231 148.996C336.642 149.438 336.421 148.554 336.863 147.892L339 145.02L343.789 141.339L344.084 143.769Z" fill="#1E1851"/>
<path d="M342.536 130.957L337.747 134.565L339 145.02L343.789 141.412L342.536 130.957Z" fill="white"/>
<path d="M332.884 35.4617L325.885 38.4068C322.274 39.8794 319.106 45.4751 319.106 50.4082V77.7242L338.337 66.9745V40.6156C338.337 36.3452 335.979 34.1364 332.884 35.4617Z" fill="#1E1851"/>
<path d="M329.053 143.916L319.106 149.511V77.6504L329.053 72.0547V143.916Z" fill="url(#paint27_linear_211_6704)"/>
<path d="M345.115 132.872L335.389 140.382L328.316 72.4229L338.337 66.8271L345.115 132.872Z" fill="url(#paint28_linear_211_6704)"/>
<path d="M326.769 154.15L319.843 158.052C319.254 158.347 319.106 157.39 319.622 156.801L321.906 154.297L326.769 151.573V154.15Z" fill="#1E1851"/>
<path d="M312.402 58.7281L309.602 55.4148L309.896 54.1632L310.044 51.1444L309.602 51.0708L309.16 53.0587L308.57 53.5005L307.76 52.5434L307.612 50.2609L306.949 50.1873L306.581 54.6049L308.128 57.9918L310.707 61.8205L312.402 58.7281Z" fill="white"/>
<path d="M315.938 59.3171L319.401 47.3893C319.401 47.3893 320.948 40.321 324.411 40.8364C327.874 41.3518 325.295 48.1256 325.295 48.1256L319.475 64.6183C318.296 68.0788 315.496 70.0668 313.875 68.5942L308.865 63.8084L312.843 56.5192L315.938 59.3171Z" fill="#1E1851"/>
<path d="M330.232 30.7495L330.674 24.5648C330.895 22.135 329.643 20.7361 327.874 21.4724C326.18 22.2087 324.632 24.712 324.411 27.1417L323.969 33.1792C323.822 34.7254 324.853 35.3881 325.959 34.4309L330.232 30.7495Z" fill="white"/>
<path d="M318.885 26.6999L330.895 24.3438C330.895 24.3438 331.632 20.5151 328.906 20.8096C325.885 21.1041 324.485 25.5954 324.485 25.5954" fill="#1E1851"/>
<path d="M318.959 27.0681L318.812 26.4054L324.19 25.3746C324.485 24.4911 325.958 20.8097 328.832 20.5152C329.569 20.4415 330.158 20.6624 330.6 21.1042C331.632 22.2086 331.19 24.3438 331.19 24.4911L331.116 24.712L318.959 27.0681ZM329.2 21.1778C329.127 21.1778 329.053 21.1778 328.979 21.1778C326.769 21.3987 325.516 24.0493 325.001 25.2274L330.674 24.123C330.748 23.6076 330.821 22.2086 330.232 21.546C329.937 21.2515 329.642 21.1778 329.2 21.1778Z" fill="#1E1851"/>
<path d="M328.336 31.703L325.85 33.895L326.825 34.9991L329.311 32.8071L328.336 31.703Z" fill="#1E1851"/>
<path d="M290.076 116.379L250.142 138.983V91.419L290.076 68.8152V116.379Z" fill="#46C2CE"/>
<path d="M290.076 68.9625L250.142 91.5663V86.1178C250.142 84.7189 250.953 83.0991 251.984 82.5101L288.234 61.9678C289.266 61.3788 290.076 62.0415 290.076 63.4404V68.9625Z" fill="#746F95"/>
<path d="M273.719 96.8674L274.604 90.3145C274.972 87.7375 273.867 86.0441 272.172 86.5595C270.477 87.0012 268.783 89.5046 268.414 92.0816L267.53 98.4872C267.309 100.181 268.267 100.991 269.372 100.181L273.719 96.8674Z" fill="white"/>
<path d="M258.836 153.929C258.836 154.003 258.615 156.506 258.615 156.506L257.584 159.451L257.436 162.985L258.026 164.311L259.941 162.838L260.089 160.335L260.826 157.831L260.678 155.917L261.194 153.487L258.836 153.929Z" fill="white"/>
<path d="M262.594 111.004L260.678 133.755L256.994 156.138L261.931 154.371L265.32 131.767L267.899 110.709L262.594 111.004Z" fill="url(#paint29_linear_211_6704)"/>
<path d="M275.635 202.008V216.145L270.772 218.796V204.364L275.635 202.008Z" fill="white"/>
<path d="M263.773 208.561L262.078 223.95L257.215 226.6L258.91 210.917L263.773 208.561Z" fill="white"/>
<path d="M276.943 86.4002C277.472 85.0351 277.286 83.6904 276.527 83.3966C275.768 83.1028 274.724 83.9713 274.194 85.3364C273.665 86.7015 273.852 88.0462 274.61 88.34C275.369 88.6337 276.414 87.7653 276.943 86.4002Z" fill="#1E1851"/>
<path d="M272.909 103.789L273.719 96.7202L270.551 98.5609L269.814 104.451L272.909 103.789Z" fill="white"/>
<path d="M274.162 93.4805C272.246 93.5541 272.172 89.5046 272.172 89.5046C272.172 89.5046 270.846 92.376 268.857 92.5969C268.267 92.6706 268.267 91.8606 268.415 91.1244C268.636 90.0936 269.078 89.1364 269.667 88.2529C270.772 86.6331 273.351 85.0132 274.677 86.4858C276.519 88.6946 274.162 93.4805 274.162 93.4805Z" fill="#1E1851"/>
<path d="M267.015 105.114L277.256 99.15C280.424 97.6038 281.677 100.181 281.161 104.819L277.109 134.05L262.815 141.044L262.299 114.98C262.005 110.562 263.699 106.66 267.015 105.114Z" fill="#EBE967"/>
<path d="M265.394 126.245L262.152 128.233C262.004 128.306 261.857 128.233 261.857 128.012L261.71 119.618C261.71 119.397 261.857 119.177 262.004 119.103L265.246 117.115C265.394 117.041 265.541 117.115 265.541 117.336L265.688 125.729C265.688 125.877 265.541 126.098 265.394 126.245Z" fill="#1E1851"/>
<path d="M268.267 124.404L266.794 123.962L266.573 121.312L264.657 120.134L264.289 120.796L265.246 122.195L263.846 122.269L261.857 123.668L261.783 126.171L263.994 127.128L265.541 126.908L266.72 127.717L268.267 124.404Z" fill="white"/>
<path d="M281.309 103.126L283.519 121.017C283.814 125.141 280.866 130.442 277.035 129.926L265.32 128.896L267.751 123.079L276.519 120.723L275.046 108.501C274.456 105.335 274.53 101.874 277.33 99.5917C279.467 97.9719 281.014 99.2236 281.309 103.126Z" fill="#EBE967"/>
<path d="M277.109 134.05L277.182 203.26L267.899 208.708L266.278 139.351L277.109 134.05Z" fill="#1E1851"/>
<path d="M275.635 220.194L274.088 221.004V218.869L267.531 224.539C267.531 222.256 270.772 218.722 270.772 218.722L275.635 216.071V218.354V220.194Z" fill="#1E1851"/>
<path d="M262.078 227.925L260.531 228.735V226.6L253.973 232.269C253.973 229.987 257.215 226.453 257.215 226.453L262.078 223.802V226.085V227.925Z" fill="#1E1851"/>
<path d="M273.572 135.743L265.173 209.813L256.036 213.715L262.815 141.044L273.572 135.743Z" fill="#1E1851"/>
<path d="M272.642 97.5168L270.208 99.427L270.481 99.7744L272.915 97.8642L272.642 97.5168Z" fill="#1E1851"/>
<path d="M265.384 128.691L265.347 129.131L277.683 130.155L277.72 129.715L265.384 128.691Z" fill="#1E1851"/>
<path d="M302.602 262.678L395.291 208.488V106.365L302.602 159.157V262.678Z" fill="#453F72"/>
<path d="M378.566 201.787L325.295 232.417V167.256L378.566 136.7V201.787Z" fill="#D1CFDC"/>
<path d="M366.114 183.969L338.705 199.726V178.668L370.166 160.629L366.114 183.969Z" fill="#66D6DD"/>
<path d="M338.337 204.88V171.6L333.916 174.177L333.548 173.514L339.074 170.275V203.555L365.967 188.166L366.335 188.829L338.337 204.88Z" fill="#231F20"/>
<path d="M346.972 207.79C348.197 205.401 348.075 202.894 346.698 202.189C345.322 201.484 343.214 202.849 341.989 205.238C340.764 207.626 340.887 210.133 342.263 210.838C343.639 211.543 345.747 210.178 346.972 207.79Z" fill="#1E1851"/>
<path d="M362.876 198.641C364.101 196.253 363.979 193.745 362.603 193.041C361.227 192.336 359.118 193.701 357.893 196.089C356.668 198.477 356.791 200.985 358.167 201.689C359.543 202.394 361.651 201.029 362.876 198.641Z" fill="#1E1851"/>
<path d="M366.858 178.549L338.552 194.792L338.919 195.431L367.225 179.187L366.858 178.549Z" fill="#231F20"/>
<path d="M367.621 173.983L338.549 190.666L338.916 191.305L367.988 174.621L367.621 173.983Z" fill="#231F20"/>
<path d="M368.314 169.447L338.539 186.534L338.906 187.172L368.681 170.086L368.314 169.447Z" fill="#231F20"/>
<path d="M368.969 164.846L338.491 182.336L338.858 182.975L369.336 165.485L368.969 164.846Z" fill="#231F20"/>
<defs>
<linearGradient id="paint0_linear_211_6704" x1="475.098" y1="549.072" x2="550.394" y2="592.751" gradientUnits="userSpaceOnUse">
<stop stop-color="#1E1851"/>
<stop offset="0.268" stop-color="#68648A" stop-opacity="0.732"/>
<stop offset="0.527" stop-color="#A9A7BC" stop-opacity="0.473"/>
<stop offset="0.7427" stop-color="#D7D6E0" stop-opacity="0.2573"/>
<stop offset="0.9068" stop-color="#F4F4F7" stop-opacity="0.0932001"/>
<stop offset="1" stop-color="white" stop-opacity="0"/>
</linearGradient>
<linearGradient id="paint1_linear_211_6704" x1="369.372" y1="488.179" x2="279.589" y2="436.095" gradientUnits="userSpaceOnUse">
<stop stop-color="white" stop-opacity="0"/>
<stop offset="1" stop-color="#DFD71E"/>
</linearGradient>
<linearGradient id="paint2_linear_211_6704" x1="538.93" y1="493.525" x2="463.635" y2="537.204" gradientUnits="userSpaceOnUse">
<stop stop-color="#1E1851"/>
<stop offset="0.268" stop-color="#68648A" stop-opacity="0.732"/>
<stop offset="0.527" stop-color="#A9A7BC" stop-opacity="0.473"/>
<stop offset="0.7427" stop-color="#D7D6E0" stop-opacity="0.2573"/>
<stop offset="0.9068" stop-color="#F4F4F7" stop-opacity="0.0932001"/>
<stop offset="1" stop-color="white" stop-opacity="0"/>
</linearGradient>
<linearGradient id="paint3_linear_211_6704" x1="644.635" y1="432.643" x2="734.418" y2="380.56" gradientUnits="userSpaceOnUse">
<stop stop-color="white" stop-opacity="0"/>
<stop offset="1" stop-color="#DFD71E"/>
</linearGradient>
<linearGradient id="paint4_linear_211_6704" x1="247.457" y1="279.082" x2="172.162" y2="322.762" gradientUnits="userSpaceOnUse">
<stop stop-color="#1E1851"/>
<stop offset="0.268" stop-color="#68648A" stop-opacity="0.732"/>
<stop offset="0.527" stop-color="#A9A7BC" stop-opacity="0.473"/>
<stop offset="0.7427" stop-color="#D7D6E0" stop-opacity="0.2573"/>
<stop offset="0.9068" stop-color="#F4F4F7" stop-opacity="0.0932001"/>
<stop offset="1" stop-color="white" stop-opacity="0"/>
</linearGradient>
<linearGradient id="paint5_linear_211_6704" x1="353.161" y1="218.202" x2="442.943" y2="166.119" gradientUnits="userSpaceOnUse">
<stop stop-color="white" stop-opacity="0"/>
<stop offset="1" stop-color="#DFD71E"/>
</linearGradient>
<linearGradient id="paint6_linear_211_6704" x1="349.731" y1="552.232" x2="274.435" y2="595.911" gradientUnits="userSpaceOnUse">
<stop stop-color="#1E1851"/>
<stop offset="0.268" stop-color="#68648A" stop-opacity="0.732"/>
<stop offset="0.527" stop-color="#A9A7BC" stop-opacity="0.473"/>
<stop offset="0.7427" stop-color="#D7D6E0" stop-opacity="0.2573"/>
<stop offset="0.9068" stop-color="#F4F4F7" stop-opacity="0.0932001"/>
<stop offset="1" stop-color="white" stop-opacity="0"/>
</linearGradient>
<linearGradient id="paint7_linear_211_6704" x1="455.437" y1="491.35" x2="545.219" y2="439.266" gradientUnits="userSpaceOnUse">
<stop stop-color="white" stop-opacity="0"/>
<stop offset="1" stop-color="#DFD71E"/>
</linearGradient>
<linearGradient id="paint8_linear_211_6704" x1="617.69" y1="295.608" x2="527.908" y2="243.524" gradientUnits="userSpaceOnUse">
<stop stop-color="white" stop-opacity="0"/>
<stop offset="1" stop-color="#DFD71E"/>
</linearGradient>
<linearGradient id="paint9_linear_211_6704" x1="519.869" y1="386.965" x2="444.574" y2="430.644" gradientUnits="userSpaceOnUse">
<stop stop-color="#1E1851"/>
<stop offset="0.268" stop-color="#68648A" stop-opacity="0.732"/>
<stop offset="0.527" stop-color="#A9A7BC" stop-opacity="0.473"/>
<stop offset="0.7427" stop-color="#D7D6E0" stop-opacity="0.2573"/>
<stop offset="0.9068" stop-color="#F4F4F7" stop-opacity="0.0932001"/>
<stop offset="1" stop-color="white" stop-opacity="0"/>
</linearGradient>
<linearGradient id="paint10_linear_211_6704" x1="625.575" y1="326.083" x2="715.357" y2="274" gradientUnits="userSpaceOnUse">
<stop stop-color="white" stop-opacity="0"/>
<stop offset="1" stop-color="#DFD71E"/>
</linearGradient>
<linearGradient id="paint11_linear_211_6704" x1="531.22" y1="230.919" x2="571.585" y2="230.919" gradientUnits="userSpaceOnUse">
<stop stop-color="#99E3E9"/>
<stop offset="0.0639301" stop-color="#8ADFE5"/>
<stop offset="0.2894" stop-color="#59D1DA"/>
<stop offset="0.5029" stop-color="#32C6D1"/>
<stop offset="0.6987" stop-color="#17BECA"/>
<stop offset="0.8706" stop-color="#06BAC6"/>
<stop offset="1" stop-color="#00B8C5"/>
</linearGradient>
<linearGradient id="paint12_linear_211_6704" x1="541.408" y1="501.218" x2="541.408" y2="376.848" gradientUnits="userSpaceOnUse">
<stop stop-color="#1E1851"/>
<stop offset="0.1264" stop-color="#3A3567"/>
<stop offset="0.4333" stop-color="#7B7799"/>
<stop offset="0.6917" stop-color="#A9A6BD"/>
<stop offset="0.8883" stop-color="#C6C4D4"/>
<stop offset="1" stop-color="#D1CFDC"/>
</linearGradient>
<linearGradient id="paint13_linear_211_6704" x1="541.408" y1="501.218" x2="541.408" y2="376.848" gradientUnits="userSpaceOnUse">
<stop stop-color="#1E1851"/>
<stop offset="0.1264" stop-color="#3A3567"/>
<stop offset="0.4333" stop-color="#7B7799"/>
<stop offset="0.6917" stop-color="#A9A6BD"/>
<stop offset="0.8883" stop-color="#C6C4D4"/>
<stop offset="1" stop-color="#D1CFDC"/>
</linearGradient>
<linearGradient id="paint14_linear_211_6704" x1="520.292" y1="501.218" x2="520.292" y2="376.848" gradientUnits="userSpaceOnUse">
<stop stop-color="#1E1851"/>
<stop offset="0.1264" stop-color="#3A3567"/>
<stop offset="0.4333" stop-color="#7B7799"/>
<stop offset="0.6917" stop-color="#A9A6BD"/>
<stop offset="0.8883" stop-color="#C6C4D4"/>
<stop offset="1" stop-color="#D1CFDC"/>
</linearGradient>
<linearGradient id="paint15_linear_211_6704" x1="520.292" y1="501.218" x2="520.292" y2="376.848" gradientUnits="userSpaceOnUse">
<stop stop-color="#1E1851"/>
<stop offset="0.1264" stop-color="#3A3567"/>
<stop offset="0.4333" stop-color="#7B7799"/>
<stop offset="0.6917" stop-color="#A9A6BD"/>
<stop offset="0.8883" stop-color="#C6C4D4"/>
<stop offset="1" stop-color="#D1CFDC"/>
</linearGradient>
<linearGradient id="paint16_linear_211_6704" x1="562.712" y1="501.218" x2="562.712" y2="376.848" gradientUnits="userSpaceOnUse">
<stop stop-color="#1E1851"/>
<stop offset="0.1264" stop-color="#3A3567"/>
<stop offset="0.4333" stop-color="#7B7799"/>
<stop offset="0.6917" stop-color="#A9A6BD"/>
<stop offset="0.8883" stop-color="#C6C4D4"/>
<stop offset="1" stop-color="#D1CFDC"/>
</linearGradient>
<linearGradient id="paint17_linear_211_6704" x1="541.408" y1="501.218" x2="541.408" y2="376.848" gradientUnits="userSpaceOnUse">
<stop stop-color="#1E1851"/>
<stop offset="0.1264" stop-color="#3A3567"/>
<stop offset="0.4333" stop-color="#7B7799"/>
<stop offset="0.6917" stop-color="#A9A6BD"/>
<stop offset="0.8883" stop-color="#C6C4D4"/>
<stop offset="1" stop-color="#D1CFDC"/>
</linearGradient>
<linearGradient id="paint18_linear_211_6704" x1="520.292" y1="501.218" x2="520.292" y2="376.848" gradientUnits="userSpaceOnUse">
<stop stop-color="#1E1851"/>
<stop offset="0.1264" stop-color="#3A3567"/>
<stop offset="0.4333" stop-color="#7B7799"/>
<stop offset="0.6917" stop-color="#A9A6BD"/>
<stop offset="0.8883" stop-color="#C6C4D4"/>
<stop offset="1" stop-color="#D1CFDC"/>
</linearGradient>
<linearGradient id="paint19_linear_211_6704" x1="562.712" y1="501.218" x2="562.712" y2="376.848" gradientUnits="userSpaceOnUse">
<stop stop-color="#1E1851"/>
<stop offset="0.1264" stop-color="#3A3567"/>
<stop offset="0.4333" stop-color="#7B7799"/>
<stop offset="0.6917" stop-color="#A9A6BD"/>
<stop offset="0.8883" stop-color="#C6C4D4"/>
<stop offset="1" stop-color="#D1CFDC"/>
</linearGradient>
<linearGradient id="paint20_linear_211_6704" x1="562.712" y1="501.218" x2="562.712" y2="376.848" gradientUnits="userSpaceOnUse">
<stop stop-color="#1E1851"/>
<stop offset="0.1264" stop-color="#3A3567"/>
<stop offset="0.4333" stop-color="#7B7799"/>
<stop offset="0.6917" stop-color="#A9A6BD"/>
<stop offset="0.8883" stop-color="#C6C4D4"/>
<stop offset="1" stop-color="#D1CFDC"/>
</linearGradient>
<linearGradient id="paint21_linear_211_6704" x1="451.189" y1="301.853" x2="509.89" y2="477.54" gradientUnits="userSpaceOnUse">
<stop stop-color="white"/>
<stop offset="1" stop-color="white" stop-opacity="0"/>
</linearGradient>
<linearGradient id="paint22_linear_211_6704" x1="153.104" y1="124.221" x2="109.472" y2="381.202" gradientUnits="userSpaceOnUse">
<stop stop-color="#99E3E9"/>
<stop offset="0.0639301" stop-color="#8ADFE5"/>
<stop offset="0.2894" stop-color="#59D1DA"/>
<stop offset="0.5029" stop-color="#32C6D1"/>
<stop offset="0.6987" stop-color="#17BECA"/>
<stop offset="0.8706" stop-color="#06BAC6"/>
<stop offset="1" stop-color="#00B8C5"/>
</linearGradient>
<linearGradient id="paint23_linear_211_6704" x1="56.8495" y1="312.58" x2="97.2075" y2="312.58" gradientUnits="userSpaceOnUse">
<stop stop-color="white"/>
<stop offset="1" stop-color="white" stop-opacity="0"/>
</linearGradient>
<linearGradient id="paint24_linear_211_6704" x1="91.3224" y1="310.178" x2="203.684" y2="310.178" gradientUnits="userSpaceOnUse">
<stop stop-color="white"/>
<stop offset="1" stop-color="white" stop-opacity="0"/>
</linearGradient>
<linearGradient id="paint25_linear_211_6704" x1="399.005" y1="304.92" x2="297.519" y2="70.8977" gradientUnits="userSpaceOnUse">
<stop stop-color="#1E1851"/>
<stop offset="0.1264" stop-color="#3A3567"/>
<stop offset="0.4333" stop-color="#7B7799"/>
<stop offset="0.6917" stop-color="#A9A6BD"/>
<stop offset="0.8883" stop-color="#C6C4D4"/>
<stop offset="1" stop-color="#D1CFDC"/>
</linearGradient>
<linearGradient id="paint26_linear_211_6704" x1="295.199" y1="178.455" x2="387.87" y2="178.455" gradientUnits="userSpaceOnUse">
<stop stop-color="#99E3E9"/>
<stop offset="0.0639301" stop-color="#8ADFE5"/>
<stop offset="0.2894" stop-color="#59D1DA"/>
<stop offset="0.5029" stop-color="#32C6D1"/>
<stop offset="0.6987" stop-color="#17BECA"/>
<stop offset="0.8706" stop-color="#06BAC6"/>
<stop offset="1" stop-color="#00B8C5"/>
</linearGradient>
<linearGradient id="paint27_linear_211_6704" x1="320.127" y1="73.4172" x2="345.59" y2="112.008" gradientUnits="userSpaceOnUse">
<stop stop-color="white"/>
<stop offset="1" stop-color="#DFD71E"/>
</linearGradient>
<linearGradient id="paint28_linear_211_6704" x1="322.102" y1="68.4101" x2="360.598" y2="111.252" gradientUnits="userSpaceOnUse">
<stop stop-color="white"/>
<stop offset="1" stop-color="#DFD71E"/>
</linearGradient>
<linearGradient id="paint29_linear_211_6704" x1="271.508" y1="109.614" x2="249.061" y2="159.284" gradientUnits="userSpaceOnUse">
<stop stop-color="white"/>
<stop offset="0.9988" stop-color="#E0D720"/>
</linearGradient>
</defs>
</svg>
