<svg width="120" height="24" viewBox="0 0 120 24" fill="none" xmlns="http://www.w3.org/2000/svg">
<path d="M56.1754 8.32275H51.269V13.1823H56.1754V8.32275Z" fill="#00BAC7"/>
<path fill-rule="evenodd" clip-rule="evenodd" d="M38.7765 0H43.4246V23.5765H38.7765V0ZM8.58504 11.3338C11.0403 11.3338 12.6998 13.2122 12.6998 15.5267C12.6998 17.8705 11.0403 19.7741 8.58504 19.7783C6.12975 19.7783 4.44068 17.8705 4.44068 15.5267C4.44068 13.2416 6.12975 11.3338 8.58504 11.3338ZM9.35549 24.0005C13.9443 24.0005 17.4368 20.424 17.4368 15.556C17.4368 10.7175 13.9443 7.11159 9.35549 7.11578C7.25156 7.11578 5.74452 7.96274 4.64811 9.1074V0.00466919H0V23.5812H4.49995V21.8034C5.59636 23.0613 7.13726 24.0005 9.35549 24.0005ZM106.923 23.5764V2.08375H108.591V10.9097C109.51 9.00199 111.466 7.94958 113.908 7.94958C115.661 7.94958 117.1 8.51981 118.247 9.63092C119.424 10.742 120 12.3353 120 14.3856V23.5806H118.277V14.6666C118.277 11.48 116.554 9.54287 113.705 9.54287C112.355 9.54287 111.178 9.99989 110.17 10.9097C109.163 11.8196 108.646 13.1865 108.646 15.0104V23.5806H106.923V23.5764ZM70.8519 22.6877C69.7301 23.5682 68.3797 23.9958 66.7711 23.9958C63.6977 23.9958 62.1441 22.0042 62.1441 18.6709V9.83232H59.4137V8.32289H62.1737V2.93086H63.8713V8.32289H70.1958V9.83232H63.8713V18.7296C63.8713 21.2076 64.8788 22.4319 66.9192 22.4319C68.0961 22.4319 69.1628 22.0923 70.1365 21.3795L70.8519 22.6877ZM86.4556 16.7087H73.5231C73.7813 20.0966 75.9953 22.4027 79.7586 22.4027C81.7398 22.4027 84.0131 21.6899 85.3931 20.5788L86.1974 21.8869C84.7031 23.0526 82.2605 23.9918 79.729 23.9918C74.0649 23.9918 71.7409 19.9792 71.7409 15.9918C71.7409 13.6857 72.4309 11.8073 73.8406 10.2978C75.2502 8.78841 77.0875 8.05047 79.3861 8.05047C81.4562 8.05047 83.1495 8.70455 84.5041 10.0421C85.8545 11.3503 86.5445 13.1155 86.5445 15.367C86.5445 15.5725 86.5149 16.0253 86.4556 16.7087ZM73.5231 15.1448H84.7623C84.7327 11.757 82.5187 9.62279 79.3861 9.62279C76.1689 9.62279 73.8702 11.8115 73.5231 15.1448ZM89.1016 16.0546C89.1016 18.3607 89.8509 20.2685 91.3156 21.7779C92.7803 23.258 94.6768 23.9959 96.9501 23.9959C98.4444 23.9959 99.8244 23.6563 101.09 22.9435C102.352 22.2307 103.3 21.2915 103.905 20.1259L102.496 19.2706C101.492 21.1238 99.2783 22.432 96.9501 22.432C95.1679 22.432 93.7031 21.8324 92.5517 20.6374C91.4045 19.4425 90.8288 17.9037 90.8288 16.0546C90.8288 14.1762 91.4341 12.6374 92.611 11.4425C93.7878 10.2181 95.3118 9.61857 97.1236 9.61857C99.4519 9.61857 101.552 10.8429 102.585 12.78L103.994 11.9833C102.813 9.56406 100.142 8.05462 97.1236 8.05462C94.7953 8.05462 92.8692 8.79257 91.3452 10.302C89.8509 11.8114 89.1016 13.7192 89.1016 16.0546ZM31.9484 15.5095C31.9484 13.1992 30.145 11.3837 27.8125 11.3837C25.5096 11.3837 23.7062 13.1992 23.7062 15.5095C23.7062 17.8785 25.5096 19.7233 27.8125 19.7233C30.145 19.7233 31.9484 17.8826 31.9484 15.5095ZM19.092 15.5388C19.092 10.8847 22.5802 7.11115 27.8082 7.11115C33.0702 7.11115 36.5838 10.8889 36.5838 15.5388C36.5838 20.1929 33.0659 23.9959 27.8082 23.9959C22.5802 24 19.092 20.1929 19.092 15.5388ZM51.2688 13.1867V17.0819C51.2688 18.9309 51.98 19.8072 53.4278 19.8072C54.465 19.8072 55.2947 19.4257 56.0905 19.0148L57.3944 22.6794C56.0905 23.5012 54.1686 24.0001 52.4203 24.0001C48.6315 24.0001 46.6207 21.8324 46.6207 17.5221L46.5911 13.1867H51.2688ZM46.5953 0H51.2731V8.32285H46.5953V0Z" fill="white"/>
</svg>
