<svg width="24" height="24" viewBox="0 0 24 24" fill="none" xmlns="http://www.w3.org/2000/svg">
<path fill-rule="evenodd" clip-rule="evenodd" d="M15.9515 12.3573C16.5123 11.1638 16.7996 10.1496 16.7996 9.38967C16.7996 6.90499 14.7014 4.8002 11.9996 4.8002C9.29778 4.8002 7.19961 6.90499 7.19961 9.38967C7.19961 10.1496 7.48694 11.1638 8.04772 12.3573C8.59584 13.5238 9.34213 14.7309 10.1131 15.8391C10.7822 16.8009 11.4538 17.6655 11.9996 18.3357C12.5454 17.6655 13.2171 16.8009 13.8862 15.8391C14.6571 14.7309 15.4034 13.5238 15.9515 12.3573ZM13.0512 19.5766C14.8675 17.3759 18.3996 12.674 18.3996 9.38967C18.3996 5.97132 15.5342 3.2002 11.9996 3.2002C8.46499 3.2002 5.59961 5.97132 5.59961 9.38967C5.59961 12.674 9.13172 17.3759 10.948 19.5766C11.5766 20.3382 11.9996 20.8002 11.9996 20.8002C11.9996 20.8002 12.4227 20.3382 13.0512 19.5766Z" fill="#170F4F"/>
<path fill-rule="evenodd" clip-rule="evenodd" d="M11.9998 11.2004C12.8835 11.2004 13.5998 10.484 13.5998 9.60039C13.5998 8.71674 12.8835 8.00039 11.9998 8.00039C11.1161 8.00039 10.3998 8.71674 10.3998 9.60039C10.3998 10.484 11.1161 11.2004 11.9998 11.2004ZM11.9998 12.8004C13.7671 12.8004 15.1998 11.3677 15.1998 9.60039C15.1998 7.83308 13.7671 6.40039 11.9998 6.40039C10.2325 6.40039 8.7998 7.83308 8.7998 9.60039C8.7998 11.3677 10.2325 12.8004 11.9998 12.8004Z" fill="#170F4F"/>
</svg>
