<?xml version="1.0" standalone="no"?>
<!DOCTYPE svg PUBLIC "-//W3C//DTD SVG 20010904//EN"
 "http://www.w3.org/TR/2001/REC-SVG-20010904/DTD/svg10.dtd">
<svg version="1.0" xmlns="http://www.w3.org/2000/svg"
 width="307.000000pt" height="80.000000pt" viewBox="0 0 307.000000 80.000000"
 preserveAspectRatio="xMidYMid meet">

<g transform="translate(0.000000,80.000000) scale(0.100000,-0.100000)"
fill="#000000" stroke="none">
<path d="M452 786 c-71 -18 -138 -61 -188 -123 -23 -28 -43 -56 -45 -61 -6
-16 -80 3 -151 36 l-56 28 20 -29 c28 -40 94 -85 133 -93 32 -6 32 -6 23 -47
-24 -103 21 -235 108 -317 82 -77 128 -95 249 -95 89 0 106 3 151 27 74 39
164 140 199 224 43 103 74 145 128 172 40 21 52 23 72 14 37 -17 32 7 -9 47
l-35 34 -91 -5 c-90 -5 -91 -5 -105 21 -18 35 -82 99 -128 128 -43 27 -136 53
-187 52 -19 0 -59 -6 -88 -13z"/>
<path d="M2153 593 c-29 -6 -63 -49 -63 -80 0 -19 10 -28 45 -44 24 -11 47
-24 50 -29 10 -17 -33 -31 -76 -24 -39 7 -41 6 -37 -17 3 -22 7 -24 66 -24 55
0 67 4 83 24 10 13 19 36 19 53 0 25 -6 32 -46 49 -56 25 -52 44 10 44 36 0
48 4 52 18 3 10 4 21 1 24 -8 7 -79 12 -104 6z"/>
<path d="M3000 581 c0 -38 -11 -51 -36 -45 -55 14 -114 -41 -114 -104 0 -48
21 -61 95 -60 l65 1 9 36 c5 20 15 63 21 96 6 33 14 68 16 78 4 13 -1 17 -25
17 -24 0 -31 -4 -31 -19z m-25 -93 c10 -27 -11 -73 -35 -76 -29 -5 -41 14 -28
47 14 39 53 56 63 29z"/>
<path d="M1226 503 c-10 -49 -20 -98 -23 -111 -5 -21 -2 -23 23 -20 20 2 30 9
32 23 2 11 8 38 14 60 l11 40 11 -40 c16 -54 37 -55 70 -5 32 48 40 48 26 -1
-17 -57 -13 -79 13 -79 22 0 25 8 45 103 12 56 22 105 22 110 0 4 -13 7 -28 7
-20 0 -33 -8 -44 -27 -10 -16 -28 -41 -42 -58 l-24 -30 -17 58 c-15 51 -19 57
-44 57 -26 0 -28 -3 -45 -87z"/>
<path d="M1535 531 c-56 -23 -83 -103 -46 -140 31 -31 131 -28 131 5 0 8 -16
14 -47 16 -73 5 -68 28 6 28 l61 0 0 34 c0 53 -49 80 -105 57z m63 -48 c2 -9
-8 -13 -32 -13 -34 0 -44 8 -29 24 11 11 56 2 61 -11z"/>
<path d="M1701 514 c-41 -37 -52 -95 -25 -125 15 -17 27 -20 57 -16 32 4 36 3
26 -9 -6 -8 -29 -14 -50 -14 -32 0 -39 -3 -39 -20 0 -16 7 -20 34 -20 48 0 95
19 108 43 6 12 19 56 28 99 l17 78 -26 0 c-14 0 -42 3 -62 6 -30 5 -41 2 -68
-22z m87 -35 c6 -32 -16 -69 -43 -69 -21 0 -25 5 -25 29 0 50 59 84 68 40z"/>
<path d="M1905 507 c-28 -28 -35 -43 -35 -75 0 -22 6 -44 13 -50 7 -6 42 -10
79 -10 l67 0 11 57 c7 31 14 66 17 79 4 18 1 22 -18 22 -13 0 -41 3 -61 6 -33
6 -41 3 -73 -29z m89 -15 c2 -4 1 -23 -3 -42 -6 -30 -11 -35 -36 -35 -27 0
-30 3 -28 30 3 39 51 73 67 47z"/>
<path d="M2366 533 c-4 -4 -22 -6 -41 -5 -19 2 -35 1 -35 0 0 -2 -11 -54 -24
-115 l-24 -113 28 0 c25 0 29 5 35 38 6 37 7 37 45 34 33 -3 44 1 70 26 25 25
30 39 30 76 0 35 -5 48 -19 56 -23 12 -54 13 -65 3z m32 -56 c6 -29 -26 -69
-51 -65 -18 2 -21 8 -19 33 2 17 9 36 15 43 14 18 51 11 55 -11z"/>
<path d="M2535 531 c-56 -23 -83 -103 -46 -140 31 -31 131 -28 131 5 0 8 -16
14 -47 16 -73 5 -68 28 6 28 l61 0 0 34 c0 53 -49 80 -105 57z m63 -48 c2 -9
-8 -13 -32 -13 -34 0 -44 8 -29 24 11 11 56 2 61 -11z"/>
<path d="M2725 531 c-56 -23 -83 -103 -46 -140 31 -31 131 -28 131 5 0 8 -16
14 -47 16 -73 5 -68 28 6 28 l61 0 0 34 c0 53 -49 80 -105 57z m63 -48 c2 -9
-8 -13 -32 -13 -34 0 -44 8 -29 24 11 11 56 2 61 -11z"/>
<path d="M2992 290 c9 -14 9 -22 -1 -34 -20 -24 -41 -19 -41 9 0 14 5 25 12
25 6 0 8 3 4 7 -9 9 -36 -24 -36 -43 0 -18 36 -27 60 -14 23 13 27 55 5 64
-12 4 -13 2 -3 -14z"/>
<path d="M2337 293 c-15 -15 -6 -52 14 -58 11 -4 23 -4 26 -1 4 3 -1 6 -11 6
-22 0 -31 26 -16 45 12 15 0 22 -13 8z"/>
<path d="M2491 271 c-23 -32 -28 -52 -9 -33 15 15 48 16 48 0 0 -6 3 -9 6 -5
8 8 -6 67 -16 67 -5 0 -18 -13 -29 -29z m25 -8 c-10 -10 -19 5 -10 18 6 11 8
11 12 0 2 -7 1 -15 -2 -18z"/>
<path d="M2640 288 c0 -7 -3 -24 -6 -38 -6 -24 -6 -24 9 -5 15 20 16 20 30 1
13 -18 14 -17 21 14 3 18 4 35 1 38 -3 3 -5 -2 -5 -11 0 -11 -8 -17 -21 -17
-15 0 -19 5 -15 15 3 8 1 15 -4 15 -6 0 -10 -6 -10 -12z"/>
<path d="M2792 288 c-19 -19 -14 -46 9 -53 11 -4 23 -4 26 -1 4 3 -1 6 -10 6
-20 0 -24 46 -4 53 6 3 7 6 2 6 -6 1 -16 -4 -23 -11z"/>
<path d="M2841 254 c0 -11 3 -14 6 -6 3 7 2 16 -1 19 -3 4 -6 -2 -5 -13z"/>
<path d="M1324 173 c-1 -10 -4 -35 -9 -55 -5 -25 -4 -38 3 -38 6 0 10 8 10 18
-1 9 3 34 7 55 4 21 3 37 -2 37 -5 0 -9 -8 -9 -17z"/>
<path d="M1899 177 c-18 -10 -24 -21 -24 -46 0 -45 24 -61 59 -38 53 35 22
112 -35 84z m46 -18 c10 -16 -3 -56 -20 -63 -37 -14 -62 33 -33 62 15 15 45
16 53 1z"/>
<path d="M1144 130 c-10 -47 -9 -50 10 -50 15 0 17 3 8 9 -21 13 -1 76 23 76
26 0 31 -32 9 -56 -9 -10 -12 -19 -7 -19 19 0 34 28 31 57 -2 23 -8 29 -33 31
-30 3 -31 1 -41 -48z"/>
<path d="M2111 159 c6 -12 8 -34 5 -50 -3 -16 -1 -29 4 -29 6 0 10 10 10 22 0
12 12 35 27 50 20 21 23 28 11 28 -9 0 -20 -10 -24 -22 l-7 -23 -10 23 c-6 12
-14 22 -19 22 -5 0 -4 -10 3 -21z"/>
<path d="M2465 171 c3 -5 -1 -28 -9 -50 -12 -35 -12 -41 0 -41 8 0 14 10 14
25 0 20 5 25 24 25 24 0 41 23 30 41 -3 5 -19 9 -35 9 -17 0 -28 -4 -24 -9z
m45 -16 c0 -8 -7 -15 -15 -15 -8 0 -15 7 -15 15 0 8 7 15 15 15 8 0 15 -7 15
-15z"/>
<path d="M1242 138 c-27 -27 2 -68 35 -49 17 10 17 11 -2 8 -11 -1 -22 3 -25
8 -3 6 8 11 23 13 16 2 27 8 24 15 -5 17 -40 20 -55 5z m35 -4 c-3 -3 -12 -4
-19 -1 -8 3 -5 6 6 6 11 1 17 -2 13 -5z"/>
<path d="M1356 120 c1 -34 14 -55 14 -22 0 11 3 27 6 36 4 10 1 16 -7 16 -9 0
-14 -11 -13 -30z"/>
<path d="M1401 138 c1 -7 4 -24 8 -37 6 -24 7 -24 34 13 20 25 24 36 14 36 -8
0 -17 -10 -21 -22 -5 -19 -8 -20 -15 -8 -5 8 -7 18 -5 22 3 4 0 8 -5 8 -6 0
-11 -6 -10 -12z"/>
<path d="M1481 136 c-24 -28 16 -73 41 -48 8 8 5 9 -11 5 -15 -4 -21 -1 -21
11 0 11 9 16 26 16 16 0 24 5 22 13 -7 18 -43 20 -57 3z m42 -3 c-7 -2 -19 -2
-25 0 -7 3 -2 5 12 5 14 0 19 -2 13 -5z"/>
<path d="M1554 115 c-1 -41 13 -47 18 -7 2 15 8 27 15 27 6 0 15 3 19 8 4 4
-6 7 -22 7 -26 0 -29 -3 -30 -35z"/>
<path d="M1623 115 c-2 -46 14 -46 19 0 2 20 0 35 -7 35 -5 0 -11 -16 -12 -35z"/>
<path d="M1673 112 l-1 -37 10 33 c6 17 17 32 24 32 9 0 14 -12 15 -32 l1 -33
7 30 c9 39 6 45 -27 45 -24 0 -27 -4 -29 -38z"/>
<path d="M1767 143 c-16 -15 -6 -54 15 -62 15 -5 18 -10 9 -15 -6 -4 -20 -5
-29 -1 -14 5 -15 4 -4 -7 19 -19 45 2 59 50 l12 42 -28 0 c-15 0 -31 -3 -34
-7z m43 -12 c0 -21 -13 -41 -26 -41 -14 0 -19 31 -7 43 10 10 33 8 33 -2z"/>
<path d="M1981 118 c1 -30 2 -31 8 -8 4 14 15 26 25 28 15 3 17 -1 11 -27 -4
-20 -3 -31 4 -31 6 0 11 16 11 35 0 32 -2 35 -30 35 -27 0 -30 -3 -29 -32z"/>
<path d="M2187 143 c-13 -13 -7 -54 10 -60 20 -8 55 31 46 52 -5 15 -44 21
-56 8z m43 -22 c0 -11 -5 -23 -11 -27 -15 -9 -33 12 -26 30 9 23 37 20 37 -3z"/>
<path d="M2265 118 c0 -18 6 -33 14 -36 10 -3 11 0 5 9 -5 8 -7 24 -5 37 1 12
-1 22 -6 22 -5 0 -9 -14 -8 -32z"/>
<path d="M2308 120 c-3 -17 -1 -33 3 -35 4 -3 9 11 11 30 5 43 -8 47 -14 5z"/>
<path d="M2353 115 c-2 -19 1 -35 6 -35 5 0 9 6 8 13 -1 37 4 49 18 43 8 -3
15 -1 15 4 0 6 -10 10 -22 10 -19 0 -23 -6 -25 -35z"/>
<path d="M2534 115 c-1 -41 13 -47 18 -7 2 15 8 27 15 27 6 0 15 3 19 8 4 4
-6 7 -22 7 -26 0 -29 -3 -30 -35z"/>
<path d="M2607 143 c-11 -10 -8 -51 3 -58 27 -17 66 19 54 50 -6 15 -45 21
-57 8z m43 -22 c0 -11 -5 -23 -11 -27 -15 -9 -33 12 -26 30 9 23 37 20 37 -3z"/>
<path d="M2684 115 c-1 -36 11 -36 18 0 2 11 11 21 21 23 14 3 16 -2 12 -30
l-5 -33 12 33 c6 17 17 32 24 32 7 0 15 -15 17 -32 4 -32 4 -32 5 5 l2 37 -52
0 -53 0 -1 -35z"/>
<path d="M2823 115 c-2 -46 14 -46 19 0 2 20 0 35 -7 35 -5 0 -11 -16 -12 -35z"/>
<path d="M2870 135 c0 -9 7 -18 15 -21 22 -9 18 -27 -5 -21 -11 3 -18 1 -14
-4 9 -14 34 -10 41 6 3 9 -3 23 -13 31 -18 15 -18 15 4 11 12 -3 22 -1 22 4 0
5 -11 9 -25 9 -16 0 -25 -6 -25 -15z"/>
<path d="M2942 138 c-27 -27 2 -68 35 -49 17 10 17 11 -2 8 -11 -1 -22 3 -25
8 -3 6 8 11 23 13 16 2 27 8 24 15 -5 17 -40 20 -55 5z m35 -4 c-3 -3 -12 -4
-19 -1 -8 3 -5 6 6 6 11 1 17 -2 13 -5z"/>
</g>
</svg>
