<svg width="30" height="30" viewBox="0 0 30 30" fill="none" xmlns="http://www.w3.org/2000/svg">
<path fill-rule="evenodd" clip-rule="evenodd" d="M2 5L28 5V25L2 25L2 15H4L4 19.5858L9 14.5858L14 19.5858L23 10.5858L26 13.5858V7L4 7L4 9H2L2 5ZM26 16.4142L23 13.4142L14 22.4142L9 17.4142L4 22.4142V23L26 23V16.4142ZM13 11C12.4477 11 12 11.4477 12 12C12 12.5523 12.4477 13 13 13C13.5523 13 14 12.5523 14 12C14 11.4477 13.5523 11 13 11ZM10 12C10 10.3431 11.3432 9 13 9C14.6569 9 16 10.3431 16 12C16 13.6569 14.6569 15 13 15C11.3432 15 10 13.6569 10 12ZM2 13L2 11H4L4 13H2Z" fill="#A29FB9"/>
</svg>
