<svg width="32" height="32" viewBox="0 0 32 32" fill="none" xmlns="http://www.w3.org/2000/svg">
<circle cx="16" cy="16" r="16" fill="#E8E7EE"/>
<mask id="mask0_2628_6267" style="mask-type:alpha" maskUnits="userSpaceOnUse" x="0" y="0" width="32" height="32">
<circle cx="16" cy="16" r="16" fill="#E8E7EE"/>
</mask>
<g mask="url(#mask0_2628_6267)">
<path d="M16.1601 18.2399C14.8801 18.2399 13.6801 17.76 12.8001 16.88C11.9201 16 11.4401 14.7999 11.4401 13.5199C11.4401 10.9599 13.5201 8.79993 16.1601 8.79993C17.4401 8.79993 18.6401 9.27994 19.5201 10.1599C20.4001 11.0399 20.8801 12.2399 20.8801 13.5199H19.8401H20.8801C20.8801 16.0799 18.7201 18.2399 16.1601 18.2399ZM16.1601 10.88C14.7201 10.88 13.5201 12.0799 13.5201 13.5199C13.5201 14.2399 13.7601 14.8799 14.3201 15.3599C14.8001 15.8399 15.4401 16.1599 16.1601 16.1599C17.6001 16.1599 18.8001 14.9599 18.8001 13.5199C18.8001 12.7999 18.5601 12.16 18.0001 11.68C17.5201 11.12 16.8801 10.88 16.1601 10.88Z" fill="#746F95"/>
<path d="M25.92 34.4799H6.40002V26.64C6.40002 24.48 7.44002 22.4 9.36002 20.88C11.2 19.44 13.6 18.64 16.16 18.64C18.72 18.64 21.12 19.44 22.96 20.96C24.88 22.48 25.92 24.56 25.92 26.72V34.4799ZM8.48002 32.3999H23.84V26.64C23.84 25.12 23.04 23.6 21.68 22.48C20.24 21.28 18.24 20.64 16.16 20.64C14 20.64 12.08 21.28 10.64 22.48C9.28002 23.6 8.48002 25.04 8.48002 26.56V32.3999Z" fill="#746F95"/>
</g>
</svg>
