<svg width="24" height="24" viewBox="0 0 24 24" fill="none" xmlns="http://www.w3.org/2000/svg">
<path fill-rule="evenodd" clip-rule="evenodd" d="M3.23548 11.2001C3.21174 11.4636 3.19961 11.7304 3.19961 12.0001C3.19961 12.2698 3.21174 12.5366 3.23548 12.8001H7.23559C7.21207 12.5294 7.19961 12.2622 7.19961 12.0001C7.19961 11.738 7.21207 11.4708 7.23559 11.2001H3.23548ZM3.53086 9.6001H7.48667C7.81443 8.11029 8.3825 6.61188 8.97662 5.35763C9.31901 4.6348 9.67905 3.97402 10.0227 3.42303C6.89237 4.14159 4.39926 6.52977 3.53086 9.6001ZM11.9996 1.6001C6.25585 1.6001 1.59961 6.25634 1.59961 12.0001C1.59961 17.7439 6.25585 22.4001 11.9996 22.4001C17.7434 22.4001 22.3996 17.7439 22.3996 12.0001C22.3996 10.2665 21.9748 8.62982 21.223 7.19066L19.8048 7.93154C20.0801 8.45851 20.3037 9.01689 20.4686 9.6001H16.5126C16.1848 8.11029 15.6167 6.61188 15.0226 5.35763C14.6802 4.63471 14.3201 3.97386 13.9764 3.42282C14.7172 3.5928 15.422 3.85626 16.078 4.20002L16.8207 2.78282C15.3787 2.02718 13.7379 1.6001 11.9996 1.6001ZM11.9996 3.39302C11.9105 3.49869 11.8072 3.63307 11.6918 3.7973C11.3113 4.3393 10.8582 5.12301 10.4226 6.04257C9.90151 7.14265 9.42863 8.38812 9.12948 9.6001H14.8697C14.5706 8.38812 14.0977 7.14265 13.5766 6.04257C13.141 5.12301 12.6879 4.3393 12.3074 3.7973C12.1921 3.63307 12.0887 3.49869 11.9996 3.39302ZM15.1567 11.2001H8.84256C8.8145 11.4741 8.79961 11.7416 8.79961 12.0001C8.79961 12.2586 8.8145 12.5261 8.84256 12.8001H15.1567C15.1847 12.5261 15.1996 12.2586 15.1996 12.0001C15.1996 11.7416 15.1847 11.4741 15.1567 11.2001ZM14.8697 14.4001H9.12948C9.42863 15.6121 9.90151 16.8575 10.4226 17.9576C10.8582 18.8772 11.3113 19.6609 11.6918 20.2029C11.8072 20.3671 11.9105 20.5015 11.9996 20.6072C12.0887 20.5015 12.1921 20.3671 12.3074 20.2029C12.6879 19.6609 13.141 18.8772 13.5766 17.9576C14.0977 16.8575 14.5706 15.6121 14.8697 14.4001ZM10.0227 20.5772C9.67905 20.0262 9.31901 19.3654 8.97662 18.6426C8.3825 17.3883 7.81443 15.8899 7.48667 14.4001H3.53086C4.39926 17.4704 6.89237 19.8586 10.0227 20.5772ZM13.9765 20.5772C14.3202 20.0262 14.6802 19.3654 15.0226 18.6426C15.6167 17.3883 16.1848 15.8899 16.5126 14.4001H20.4684C19.6 17.4704 17.1069 19.8586 13.9765 20.5772ZM20.7637 12.8001H16.7636C16.7872 12.5294 16.7996 12.2622 16.7996 12.0001C16.7996 11.738 16.7872 11.4708 16.7636 11.2001H20.7638C20.7875 11.4635 20.7996 11.7304 20.7996 12.0001C20.7996 12.2698 20.7875 12.5366 20.7637 12.8001ZM18.2811 5.75595C18.0391 5.513 17.7787 5.28826 17.5023 5.08397L18.4534 3.7973C18.7946 4.04951 19.1159 4.3269 19.4146 4.62672C19.7058 4.91901 19.9755 5.23267 20.2212 5.56518L18.9345 6.51609C18.7355 6.24687 18.517 5.99279 18.2811 5.75595Z" fill="#170F4F"/>
</svg>
